<svg width="54" height="54" viewBox="0 0 54 54" fill="none" xmlns="http://www.w3.org/2000/svg">
<circle cx="27" cy="27" r="27" fill="#0F3834"/>
<mask id="mask0_736_1200" style="mask-type:alpha" maskUnits="userSpaceOnUse" x="15" y="15" width="24" height="24">
<rect x="15" y="15" width="24" height="24" fill="#D9D9D9"/>
</mask>
<g mask="url(#mask0_736_1200)">
<path d="M23 27V25H31V27H23ZM23 23V21H31V23H23ZM21 29H28.5C28.9833 29 29.4333 29.1042 29.85 29.3125C30.2667 29.5208 30.6167 29.8167 30.9 30.2L33 32.95V19H21V29ZM21 35H32.05L29.325 31.425C29.225 31.2917 29.1042 31.1875 28.9625 31.1125C28.8208 31.0375 28.6667 31 28.5 31H21V35ZM33 37H21C20.45 37 19.9792 36.8042 19.5875 36.4125C19.1958 36.0208 19 35.55 19 35V19C19 18.45 19.1958 17.9792 19.5875 17.5875C19.9792 17.1958 20.45 17 21 17H33C33.55 17 34.0208 17.1958 34.4125 17.5875C34.8042 17.9792 35 18.45 35 19V35C35 35.55 34.8042 36.0208 34.4125 36.4125C34.0208 36.8042 33.55 37 33 37Z" fill="white"/>
</g>
</svg>
