<svg width="189" height="140" viewBox="0 0 189 140" fill="none" xmlns="http://www.w3.org/2000/svg">
<path d="M104.696 57.4068C65.5883 57.5811 63.2035 57.5969 62.229 57.7316C57.4991 58.3733 53.3 61.4473 51.2876 65.7255C49.7505 69.0134 49.5128 72.6815 50.622 76.0962C52.3888 81.5311 57.2139 85.3339 63.0213 85.8885C64.2256 85.9994 115.899 85.9994 117.491 85.8806C123.655 85.4448 129.28 82.8224 133.852 78.2432C138.495 73.6005 141.434 67.6269 142.329 61.0115C142.416 60.3302 142.591 58.0485 142.606 57.3434C142.606 57.2721 132.235 57.2879 104.696 57.4068Z" fill="#0F3834"/>
<path d="M71.6927 0.541599C56.4651 0.986719 42.1547 5.54871 29.9032 13.8606C26.4874 16.1805 23.6411 18.4677 20.5043 21.4308C17.848 23.9396 16.0639 25.8716 13.6018 28.8847C13.1067 29.4961 12.9524 29.7272 12.9511 29.878C12.9502 29.9848 13.0048 30.5444 13.0727 31.1167C13.9047 38.1669 15.5736 45.6452 17.754 52.1543C21.6183 63.6727 27.0009 73.3824 34.006 81.4791C35.9784 83.7581 39.5219 87.2822 41.6574 89.0851C43.6811 90.7928 47.1924 93.4622 46.8191 93.0066C45.3126 91.184 44.5865 90.1976 43.7118 88.7889C42.9612 87.5824 41.8157 85.3483 41.3103 84.1062C38.1611 76.3573 38.2216 67.9076 41.4857 60.2084C42.8103 57.0912 44.7899 53.9986 47.1895 51.3117C48.2724 50.1023 50.7211 47.8682 52.0335 46.8933C52.3467 46.6572 52.5472 46.4328 52.8557 45.9706C55.5723 41.8603 59.4729 37.8357 64.5777 33.8719C72.2948 27.8765 82.69 22.1809 95.5837 16.8903C109.241 11.2797 125.701 6.18985 143.091 2.19504L146.871 1.32961L113.216 1.02962C92.8973 0.852302 79.184 0.707496 78.6019 0.664725C77.1797 0.564351 73.2751 0.492585 71.6927 0.541599Z" fill="url(#paint0_linear_137_1235)"/>
<path d="M14.0174 28.6805C15.9409 83.0872 61.0445 105.115 74.1112 99.8072C68.4069 103.722 55.6719 122.631 74.1112 139.02C-1.6362 139.02 -14.3713 60.5283 14.0174 28.6805Z" fill="url(#paint1_linear_137_1235)"/>
<path d="M154.975 1.24204C154.975 1.28915 151.954 1.30934 146.035 1.30934H137.094L135.003 1.92178C122.613 5.54255 108.858 10.3478 98.0375 14.83C76.8868 23.5858 62.263 32.3887 54.1477 41.232C51.4674 44.1529 49.6123 46.9189 48.3528 49.86L48.0674 50.5262L48.3031 50.3311C52.2491 47.067 57.4546 44.6913 62.5298 43.8433C64.2484 43.5606 61.6302 43.5741 113.567 43.5741C146.618 43.5741 162.892 43.5539 163.512 43.5068C165.851 43.3318 167.936 42.8944 170.12 42.1271C179.842 38.7015 187.046 29.3737 188.411 18.4373C188.646 16.5529 188.665 15.9472 188.665 8.49031V1.17474H171.82C160.634 1.17474 154.975 1.19493 154.975 1.24204Z" fill="url(#paint2_linear_137_1235)"/>
<circle cx="88.3965" cy="118.83" r="19.3321" fill="#001C18"/>
<defs>
<linearGradient id="paint0_linear_137_1235" x1="41.833" y1="86.7673" x2="58.616" y2="-16.0511" gradientUnits="userSpaceOnUse">
<stop stop-color="#445D51"/>
<stop offset="1" stop-color="#6C8479"/>
</linearGradient>
<linearGradient id="paint1_linear_137_1235" x1="4.10182" y1="43.3584" x2="65.1266" y2="132.826" gradientUnits="userSpaceOnUse">
<stop stop-color="#0F3834"/>
<stop offset="1" stop-color="#001C18"/>
</linearGradient>
<linearGradient id="paint2_linear_137_1235" x1="53.9225" y1="44.343" x2="188.49" y2="0.984616" gradientUnits="userSpaceOnUse">
<stop stop-color="#4A6357"/>
<stop offset="1" stop-color="#6C8479"/>
</linearGradient>
</defs>
</svg>
