<svg width="174" height="53" viewBox="0 0 174 53" fill="none" xmlns="http://www.w3.org/2000/svg">
<path d="M32.7551 17.98C20.5066 18.0346 19.7597 18.0395 19.4545 18.0817C17.973 18.2827 16.6579 19.2455 16.0276 20.5854C15.5462 21.6152 15.4717 22.7641 15.8191 23.8335C16.3725 25.5358 17.8837 26.7268 19.7026 26.9005C20.0798 26.9353 36.2639 26.9353 36.7627 26.898C38.6932 26.7616 40.4551 25.9402 41.8869 24.506C43.341 23.0519 44.2616 21.181 44.542 19.109C44.5693 18.8956 44.6239 18.181 44.6289 17.9601C44.6289 17.9378 41.3806 17.9428 32.7551 17.98Z" fill="#0F3834"/>
<path d="M22.4185 0.169498C17.6492 0.30891 13.1671 1.73774 9.32993 4.34103C8.2601 5.06763 7.36863 5.78399 6.38618 6.71206C5.55423 7.4978 4.99544 8.10293 4.2243 9.04662C4.06922 9.23811 4.02091 9.31049 4.0205 9.35772C4.02021 9.39117 4.03734 9.56644 4.05858 9.7457C4.31917 11.9538 4.84188 14.2961 5.5248 16.3347C6.7351 19.9423 8.42093 22.9834 10.6149 25.5193C11.2327 26.2331 12.3425 27.3369 13.0114 27.9015C13.6452 28.4364 14.7449 29.2724 14.628 29.1297C14.1562 28.5589 13.9288 28.25 13.6548 27.8088C13.4197 27.4309 13.061 26.7312 12.9027 26.3421C11.9163 23.9152 11.9353 21.2687 12.9576 18.8573C13.3725 17.881 13.9925 16.9123 14.7441 16.0708C15.0832 15.692 15.8501 14.9923 16.2612 14.6869C16.3593 14.613 16.4221 14.5427 16.5187 14.398C17.3696 13.1106 18.5912 11.8501 20.1901 10.6086C22.6071 8.73085 25.8629 6.94697 29.9012 5.28995C34.1788 3.53269 39.334 1.93854 44.7806 0.68736L45.9646 0.416304L35.4238 0.322349C29.0599 0.266812 24.7648 0.221458 24.5825 0.208062C24.1371 0.176625 22.9141 0.154146 22.4185 0.169498Z" fill="url(#paint0_linear_138_3973)"/>
<path d="M4.3545 8.98291C4.95695 26.0232 19.0835 32.9224 23.176 31.26C21.3894 32.486 17.4008 38.4086 23.176 43.5414C-0.548247 43.5414 -4.53692 18.9577 4.3545 8.98291Z" fill="url(#paint1_linear_138_3973)"/>
<path d="M48.5033 0.389024C48.5033 0.403779 47.5569 0.410103 45.7031 0.410103H42.9029L42.248 0.601918C38.3674 1.73595 34.0593 3.24097 30.6703 4.64481C24.0458 7.38715 19.4656 10.1442 16.9239 12.914C16.0844 13.8288 15.5034 14.6951 15.1089 15.6163L15.0195 15.825L15.0934 15.7638C16.3293 14.7415 17.9596 13.9974 19.5492 13.7318C20.0875 13.6433 19.2674 13.6475 35.5342 13.6475C45.8858 13.6475 50.9829 13.6412 51.1772 13.6264C51.9098 13.5716 52.5627 13.4346 53.2467 13.1943C56.2918 12.1214 58.5478 9.19992 58.9754 5.77463C59.0492 5.18443 59.055 4.99472 59.055 2.6592V0.367945H53.7792C50.2755 0.367945 48.5033 0.374269 48.5033 0.389024Z" fill="url(#paint2_linear_138_3973)"/>
<circle cx="27.6506" cy="37.2177" r="6.05485" fill="#001C18"/>
<path d="M70.4485 18.4893C69.3068 18.4893 68.2335 18.2642 67.2285 17.814C66.2235 17.3557 65.3391 16.7246 64.5753 15.9206C63.8196 15.1166 63.2246 14.188 62.7905 13.1348C62.3644 12.0735 62.1513 10.9399 62.1513 9.7339C62.1513 8.51988 62.3644 7.38626 62.7905 6.33303C63.2246 5.27177 63.8196 4.34316 64.5753 3.54722C65.3391 2.74323 66.2235 2.11612 67.2285 1.66588C68.2335 1.20761 69.3068 0.978472 70.4485 0.978472C71.8152 0.978472 73.0735 1.29605 74.2232 1.9312C75.3729 2.55831 76.3256 3.39848 77.0814 4.4517L74.4523 5.8627C73.978 5.27579 73.387 4.80546 72.6795 4.4517C71.9801 4.09795 71.2364 3.92107 70.4485 3.92107C69.7088 3.92107 69.0133 4.07383 68.3621 4.37934C67.7109 4.67682 67.1401 5.09489 66.6496 5.63356C66.1592 6.1642 65.7773 6.78327 65.5039 7.49078C65.2306 8.19025 65.0939 8.93796 65.0939 9.7339C65.0939 10.5379 65.2306 11.2896 65.5039 11.9891C65.7853 12.6886 66.1713 13.3076 66.6617 13.8463C67.1521 14.3769 67.7189 14.795 68.3621 15.1005C69.0133 15.398 69.7088 15.5467 70.4485 15.5467C71.2525 15.5467 72.0002 15.3699 72.6916 15.0161C73.3911 14.6543 73.978 14.18 74.4523 13.593L77.0814 15.0161C76.3256 16.0613 75.3729 16.9015 74.2232 17.5366C73.0735 18.1718 71.8152 18.4893 70.4485 18.4893ZM87.102 18.4893C85.9603 18.4893 84.887 18.2642 83.882 17.814C82.877 17.3557 81.9926 16.7246 81.2288 15.9206C80.465 15.1166 79.8661 14.188 79.4319 13.1348C78.9978 12.0735 78.7807 10.9399 78.7807 9.7339C78.7807 8.52792 78.9978 7.39832 79.4319 6.34509C79.8661 5.28383 80.465 4.3512 81.2288 3.54722C81.9926 2.74323 82.877 2.11612 83.882 1.66588C84.887 1.20761 85.9603 0.978472 87.102 0.978472C88.2517 0.978472 89.329 1.20761 90.334 1.66588C91.339 2.11612 92.2234 2.74323 92.9871 3.54722C93.7509 4.3512 94.3459 5.28383 94.772 6.34509C95.2062 7.39832 95.4232 8.52792 95.4232 9.7339C95.4232 10.9399 95.2062 12.0735 94.772 13.1348C94.3459 14.188 93.7509 15.1166 92.9871 15.9206C92.2234 16.7246 91.339 17.3557 90.334 17.814C89.329 18.2642 88.2517 18.4893 87.102 18.4893ZM87.102 15.5467C87.8416 15.5467 88.5371 15.394 89.1883 15.0885C89.8395 14.783 90.4104 14.3649 90.9008 13.8342C91.3993 13.2956 91.7852 12.6765 92.0585 11.977C92.3399 11.2776 92.4806 10.5299 92.4806 9.7339C92.4806 8.93796 92.3399 8.19025 92.0585 7.49078C91.7771 6.78327 91.3872 6.1642 90.8887 5.63356C90.3983 5.10293 89.8275 4.68486 89.1762 4.37934C88.5331 4.07383 87.8416 3.92107 87.102 3.92107C86.3623 3.92107 85.6668 4.07383 85.0156 4.37934C84.3644 4.68486 83.7895 5.10695 83.291 5.64562C82.8006 6.17626 82.4147 6.79131 82.1333 7.49078C81.86 8.19025 81.7233 8.93796 81.7233 9.7339C81.7233 10.5379 81.864 11.2896 82.1454 11.9891C82.4268 12.6886 82.8127 13.3076 83.3031 13.8463C83.8016 14.3769 84.3724 14.795 85.0156 15.1005C85.6668 15.398 86.3623 15.5467 87.102 15.5467ZM97.6119 18.1758V1.29203H100.796L107.923 12.8574V1.29203H110.866V18.1758H107.694L100.554 6.61041V18.1758H97.6119ZM113.77 18.1758V1.29203H124.359V4.23463H116.713V7.65962H122.779V10.6022H116.713V15.2332H124.359V18.1758H113.77ZM134.752 18.4893C133.61 18.4893 132.537 18.2642 131.532 17.814C130.527 17.3557 129.642 16.7246 128.879 15.9206C128.123 15.1166 127.528 14.188 127.094 13.1348C126.668 12.0735 126.455 10.9399 126.455 9.7339C126.455 8.51988 126.668 7.38626 127.094 6.33303C127.528 5.27177 128.123 4.34316 128.879 3.54722C129.642 2.74323 130.527 2.11612 131.532 1.66588C132.537 1.20761 133.61 0.978472 134.752 0.978472C136.119 0.978472 137.377 1.29605 138.527 1.9312C139.676 2.55831 140.629 3.39848 141.385 4.4517L138.756 5.8627C138.281 5.27579 137.69 4.80546 136.983 4.4517C136.283 4.09795 135.54 3.92107 134.752 3.92107C134.012 3.92107 133.317 4.07383 132.665 4.37934C132.014 4.67682 131.443 5.09489 130.953 5.63356C130.463 6.1642 130.081 6.78327 129.807 7.49078C129.534 8.19025 129.397 8.93796 129.397 9.7339C129.397 10.5379 129.534 11.2896 129.807 11.9891C130.089 12.6886 130.475 13.3076 130.965 13.8463C131.455 14.3769 132.022 14.795 132.665 15.1005C133.317 15.398 134.012 15.5467 134.752 15.5467C135.556 15.5467 136.304 15.3699 136.995 15.0161C137.694 14.6543 138.281 14.18 138.756 13.593L141.385 15.0161C140.629 16.0613 139.676 16.9015 138.527 17.5366C137.377 18.1718 136.119 18.4893 134.752 18.4893ZM156.468 1.29203V4.23463H151.306V18.1758H148.363V4.23463H143.202V1.29203H156.468ZM162.212 1.29203H165.601L171.74 18.1758H168.616L167.531 15.1849H160.295L159.21 18.1758H156.086L162.212 1.29203ZM161.368 12.2423H166.445L163.901 5.28383L161.368 12.2423Z" fill="#6C8479"/>
<path d="M63.1385 44.2905V21.5171H76.4122V23.2739H64.8953V31.2121H74.8506V32.9689H64.8953V44.2905H63.1385ZM87.426 44.7135C85.6042 44.7135 84.0371 44.2688 82.725 43.3796C81.4236 42.4903 80.4205 41.2974 79.7156 39.8009C79.0216 38.2935 78.6745 36.6235 78.6745 34.7908V21.5171H80.4313V34.7908C80.4313 36.2764 80.7025 37.6374 81.2447 38.8737C81.7869 40.11 82.5786 41.1022 83.6196 41.8505C84.6607 42.5879 85.9295 42.9567 87.426 42.9567C88.9551 42.9567 90.2348 42.5825 91.265 41.8342C92.3061 41.086 93.0923 40.0937 93.6237 38.8574C94.1551 37.6103 94.4207 36.2548 94.4207 34.7908V21.5171H96.1776V34.7908C96.1776 36.168 95.9769 37.4585 95.5757 38.6622C95.1744 39.8551 94.5943 40.907 93.8351 41.818C93.0869 42.7289 92.1705 43.4392 91.0861 43.9489C90.0125 44.4586 88.7925 44.7135 87.426 44.7135ZM99.9929 44.2905V21.5171H101.912L114.665 41.1185V21.5171H116.422V44.2905H114.535L101.75 24.6891V44.2905H99.9929ZM120.326 44.2905V21.5171H127.858C129.43 21.5171 130.905 21.8153 132.282 22.4118C133.66 22.9974 134.869 23.8161 135.91 24.868C136.951 25.9091 137.764 27.1183 138.35 28.4955C138.946 29.8619 139.245 31.3314 139.245 32.9038C139.245 34.4763 138.946 35.9511 138.35 37.3284C137.764 38.6948 136.951 39.9039 135.91 40.9558C134.869 41.9969 133.66 42.8157 132.282 43.4121C130.905 43.9977 129.43 44.2905 127.858 44.2905H120.326ZM122.083 42.5337H127.858C129.192 42.5337 130.439 42.2843 131.599 41.7854C132.759 41.2866 133.779 40.598 134.657 39.7196C135.547 38.8303 136.241 37.8055 136.739 36.6452C137.238 35.4848 137.488 34.2377 137.488 32.9038C137.488 31.5699 137.238 30.3228 136.739 29.1625C136.241 28.0021 135.547 26.9827 134.657 26.1043C133.768 25.2151 132.743 24.521 131.583 24.0222C130.423 23.5233 129.181 23.2739 127.858 23.2739H122.083V42.5337ZM148.638 21.5171H150.948L159.244 44.2905H157.374L155.503 39.1502H144.1L142.229 44.2905H140.359L148.638 21.5171ZM144.734 37.3934H154.852L149.793 23.5179L144.734 37.3934ZM164.898 44.7135C164.183 44.7135 163.489 44.5942 162.816 44.3556C162.155 44.1279 161.547 43.7754 160.994 43.2983L162.117 41.9319C162.486 42.2572 162.908 42.512 163.386 42.6964C163.863 42.8699 164.367 42.9567 164.898 42.9567C165.701 42.9567 166.433 42.7398 167.094 42.306C167.756 41.8614 168.282 41.292 168.672 40.598C169.074 39.8931 169.274 39.1394 169.274 38.3369V21.5171H171.031V38.3369C171.031 39.4647 170.754 40.5112 170.201 41.4764C169.648 42.4415 168.905 43.2223 167.973 43.8188C167.051 44.4152 166.026 44.7135 164.898 44.7135Z" fill="#231F20"/>
<defs>
<linearGradient id="paint0_linear_138_3973" x1="13.0664" y1="27.1756" x2="18.3229" y2="-5.02738" gradientUnits="userSpaceOnUse">
<stop stop-color="#445D51"/>
<stop offset="1" stop-color="#6C8479"/>
</linearGradient>
<linearGradient id="paint1_linear_138_3973" x1="1.24891" y1="13.5801" x2="20.362" y2="41.6016" gradientUnits="userSpaceOnUse">
<stop stop-color="#0F3834"/>
<stop offset="1" stop-color="#001C18"/>
</linearGradient>
<linearGradient id="paint2_linear_138_3973" x1="16.8534" y1="13.8883" x2="59.0002" y2="0.3084" gradientUnits="userSpaceOnUse">
<stop stop-color="#4A6357"/>
<stop offset="1" stop-color="#6C8479"/>
</linearGradient>
</defs>
</svg>
