<svg width="122" height="72" viewBox="0 0 122 72" fill="none" xmlns="http://www.w3.org/2000/svg">
<path d="M90.3908 45.917L91.6113 42.4876L92.8858 46.0759L90.3908 45.917Z" fill="white"/>
<g filter="url(#filter0_d_86_14417)">
<path fill-rule="evenodd" clip-rule="evenodd" d="M89.5061 49.4124H87.6305C87.6867 48.8938 88.1706 47.5935 88.3545 47.0261C88.6171 46.2181 88.8834 45.4252 89.131 44.621C89.3711 43.8281 89.6299 42.975 89.9 42.2122C90.0688 41.7236 90.5227 39.9536 90.7591 39.901H93.0361C93.2987 39.901 93.2687 40.0514 93.3475 40.337C93.4 40.5324 93.4675 40.7278 93.5275 40.9157C93.8952 42.0919 96.1085 48.9764 96.1497 49.4124H93.8089L93.2124 47.4507L90.2676 47.4432C90.0126 47.4432 89.9113 48.1271 89.8362 48.3789C89.7499 48.6908 89.6262 49.1305 89.5061 49.4124ZM71.8899 49.4124H69.9917C70.0592 48.9238 71.2559 45.4214 71.5073 44.6022L72.6664 40.9871C73.0978 39.6305 72.4864 39.8973 75.4274 39.8973C75.7012 39.8973 76.1814 41.8213 76.2789 42.1408L77.7945 46.9885C77.9595 47.5259 78.4772 48.9276 78.526 49.4086H76.1927C75.2473 47.0073 76.6616 47.4394 72.6702 47.4394C72.3888 47.4394 72.4151 47.6762 72.2163 48.3564C72.115 48.7059 72.0174 49.0817 71.8899 49.4124ZM43.4211 39.9161L45.7919 39.901C45.9232 41.2313 45.8069 43.1892 45.8069 44.5909C45.8069 46.1956 45.5106 47.7438 47.3937 47.7514C49.3969 47.7589 49.0856 46.391 49.0856 44.6586C49.0856 43.1441 49.0068 41.4192 49.0931 39.9311L50.9688 39.9048L50.9575 46.5601C50.7924 48.8299 49.3369 49.5552 47.1912 49.5552C42.8096 49.5552 43.4136 46.3835 43.4136 43.2794C43.4098 42.231 43.3423 40.927 43.4211 39.9161ZM62.0239 49.4124C63.7908 49.4124 66.3492 49.6529 67.6809 48.7885C70.5882 46.9021 70.3819 42.1069 67.6697 40.4647C66.3679 39.6793 63.7608 39.901 62.0014 39.901L62.0239 49.4124ZM100.903 49.5514C98.1379 49.5514 96.7837 47.3643 96.7612 44.6586C96.7162 39.1833 102.028 38.6872 103.787 41.1412C105.903 44.0911 104.917 49.5514 100.903 49.5514ZM54.4912 43.8281C54.4912 45.4252 54.54 47.9092 54.4837 49.4011L52.7881 49.4161L52.7844 39.901H55.144L58.3551 45.4477C58.3551 43.9784 58.2988 41.081 58.3739 39.901L60.0582 39.9086L60.0657 49.386L58.19 49.4124L54.48 43.0088C54.4087 43.2155 54.4912 43.5387 54.4912 43.8281ZM37.8841 43.892L41.3841 43.9145L41.4029 45.677H37.8841V49.4124H35.6108L35.5921 39.901H42.3294L42.3407 41.7462L37.8991 41.7687L37.8841 43.892ZM85.0946 45.9551C84.922 47.1313 84.168 48.1196 82.795 47.6536C81.7334 47.2929 81.5871 45.9551 81.5908 44.6586C81.5946 43.426 81.8046 42.028 82.7837 41.656C84.1455 41.1412 84.9032 42.2385 84.9182 43.5237C85.3346 43.6364 86.7076 43.4523 87.2366 43.4335C87.0603 41.5583 86.1487 40.2242 84.4943 39.8635C80.3004 38.954 78.3834 43.0051 79.385 46.5075C80.1278 49.1004 82.056 49.2357 82.5737 49.5213L82.2436 50.7239C82.6299 50.6825 83.0051 50.6299 83.3089 50.8065C83.534 50.9381 83.6916 51.2425 83.4777 51.5431C83.0989 52.0842 82.2548 51.6032 81.7746 51.483L81.5683 52.0655C82.4949 52.4375 83.7778 52.8884 84.5619 52.0053C85.1433 51.3552 84.8582 49.9535 83.1439 50.1339L83.3089 49.5627C84.4343 49.4762 85.4397 49.1794 86.0699 48.6044C86.5126 48.2023 87.3153 46.9171 87.2066 46.0753L85.0946 45.9551ZM89.5849 38.0183C90.7141 36.549 92.1771 37.7665 92.7548 37.7365C93.2237 37.7139 93.3437 37.4246 93.6551 37.2216C93.8276 37.3306 94.1278 37.7515 94.2065 37.9469C93.8764 38.443 93.1637 39.0217 92.1808 38.7286C91.0592 38.3979 91.1942 38.0183 90.1326 38.7436C89.9713 38.6008 89.6562 38.1799 89.5849 38.0183ZM32.9811 15.6098H36.8488L36.8525 32.0019L36.8263 32.2612L32.9811 32.2499V15.6098ZM95.7108 15.6098L100.22 15.6136L105.389 32.2612H101.255L100.209 28.8189H94.8292L93.7751 32.2574L90.3952 32.2499L95.7108 15.6098ZM40.2325 15.6098L44.4189 15.6173C45.233 17.1731 49.3407 24.2418 50.0647 25.3954C49.9109 22.5394 50.0047 18.5786 50.0047 15.6098H53.0057C53.0057 17.7255 53.077 31.3405 52.9832 32.2612H49.6895L43.1622 21.0701C43.2785 22.934 43.3123 30.8181 43.226 32.2574H40.2325L40.2175 31.9981L40.2325 15.6098ZM70.5769 15.6098C71.7623 15.6098 75.7725 15.5572 76.6541 15.6286C77.0892 17.2633 77.5957 18.9205 78.0908 20.5515C78.3422 21.3782 79.3213 25.0347 79.5689 25.4744C79.6176 25.4067 79.5651 25.5195 79.6551 25.3203C79.7189 25.1888 79.6551 25.3391 79.7152 25.1625L80.004 24.2079C80.1353 23.7833 80.2478 23.415 80.3754 22.9904C80.8931 21.2692 82.3073 17.0002 82.6412 15.6098H88.7183L88.6921 32.2612H84.817L84.7832 18.7289L80.6005 32.2612C80.0265 32.2612 78.3609 32.3702 77.9445 32.2123L73.8368 18.7326L73.8218 32.2612H70.6032L70.5882 32.0019L70.5769 15.6098ZM56.3519 15.6098C58.3251 15.6098 66.9682 15.5271 68.2286 15.6286V18.7589H60.3096L60.3058 22.2012H66.5368L66.5443 25.3316H60.3096L60.3058 28.9805C62.0464 28.9805 66.8181 28.9053 68.2173 28.9918L68.2136 32.2649H56.3707L56.3557 32.0056V15.6098H56.3519ZM16.5166 23.9111C16.5166 19.1686 19.1913 15.3505 23.8542 15.3505C28.0819 15.3505 30.359 17.6955 30.7153 21.7954L26.6527 22.0396C26.6527 20.9273 26.3901 19.9239 25.8049 19.2587C25.2534 18.6312 24.098 18.3042 23.0289 18.65C21.277 19.2174 20.8381 21.5999 20.8381 23.7683C20.8381 25.1136 20.8644 26.5642 21.4008 27.7517C22.3386 29.8298 26.3188 30.4236 26.9603 26.1921L30.7003 26.4138C30.7303 27.1429 30.3177 28.3867 30.0213 28.9692C29.6162 29.7584 29.2261 30.3484 28.6746 30.8069C24.1918 34.5122 16.5166 32.3664 16.5166 23.9111ZM12.9453 36.1506H27.9281C28.1757 36.1506 29.7813 37.9695 30.2239 38.4167C30.5615 38.7511 32.4184 40.6414 32.4184 40.7842V56H109.602V13.8812C109.602 13.6707 109.114 13.2874 108.964 13.1371C108.728 12.9003 108.458 12.6673 108.251 12.4005C107.753 11.7504 107.051 11.1754 106.477 10.5779L105.408 9.43553C105.205 9.2326 104.099 8 103.941 8H12.9453V36.1506Z" fill="white"/>
<path fill-rule="evenodd" clip-rule="evenodd" d="M18.5356 46.3158C18.5356 43.4297 19.9836 43.9671 20.2762 44.3616C20.6101 44.8126 20.6776 47.15 20.3212 47.6912C19.9348 48.2774 18.5356 48.6269 18.5356 46.3158ZM20.5388 43.4109C19.2296 41.9077 16.4648 42.4827 16.4648 46.1091C16.4648 49.3672 18.6144 50.1413 19.9273 49.2357C20.3625 48.9313 20.2874 48.8975 20.6063 48.5292C20.6063 49.6265 20.2687 49.4273 22.4707 49.4273V40.5023H20.535V43.4109H20.5388Z" fill="white"/>
<path fill-rule="evenodd" clip-rule="evenodd" d="M26.6815 48.2562C26.1601 48.2562 25.7137 48.2562 25.7137 47.4257C25.7137 46.6704 26.8428 46.3209 27.6494 46.3209V47.08C27.6494 47.6211 27.203 48.2562 26.6815 48.2562ZM23.853 44.7989C24.4833 44.7989 25.0347 44.938 25.6499 44.938C25.7887 44.3329 26.0513 43.9684 26.7528 43.9684C27.7807 43.9684 27.6494 44.7463 27.6494 45.2837C26.6065 45.2837 24.7571 45.5317 24.1156 46.3059C23.2341 47.3694 23.4441 49.5715 25.7174 49.5715C26.4452 49.5715 26.9479 49.3498 27.3943 48.8988C27.5481 48.7448 27.6569 48.5644 27.7882 48.4629C27.7882 48.8988 27.8294 49.1018 27.8557 49.4325H29.7914C29.6788 48.0946 29.6526 48.7335 29.6526 47.1514C29.6526 46.3434 29.6526 45.5355 29.6563 44.7275C29.6563 43.8857 29.3712 43.4611 28.8573 43.1079C27.6306 42.2661 23.853 42.4653 23.853 44.7989Z" fill="white"/>
<path fill-rule="evenodd" clip-rule="evenodd" d="M100.506 41.6005C99.0696 41.9236 99.0509 43.8778 99.0921 45.0765C99.1409 46.4745 99.621 48.0678 101.193 47.7146C102.446 47.4328 102.585 45.6665 102.543 44.2536C102.506 42.8857 102.071 41.2472 100.506 41.6005Z" fill="white"/>
<path fill-rule="evenodd" clip-rule="evenodd" d="M64.1553 47.6306C65.3107 47.6306 65.9859 47.7095 66.6649 47.0105C67.7303 45.917 67.7866 43.4931 66.7137 42.2492C66.1435 41.5916 65.2319 41.6292 64.1778 41.6292L64.1553 47.6306Z" fill="white"/>
<path fill-rule="evenodd" clip-rule="evenodd" d="M95.7676 25.7749H99.3126L97.572 19.9238L95.7676 25.7749Z" fill="white"/>
<path fill-rule="evenodd" clip-rule="evenodd" d="M73.0371 45.711H75.0591L74.0837 42.389C73.8812 42.7497 73.6823 43.5539 73.5435 44.0086C73.371 44.5535 73.1684 45.1435 73.0371 45.711Z" fill="white"/>
</g>
<defs>
<filter id="filter0_d_86_14417" x="0.945312" y="0" width="120.656" height="72" filterUnits="userSpaceOnUse" color-interpolation-filters="sRGB">
<feFlood flood-opacity="0" result="BackgroundImageFix"/>
<feColorMatrix in="SourceAlpha" type="matrix" values="0 0 0 0 0 0 0 0 0 0 0 0 0 0 0 0 0 0 127 0" result="hardAlpha"/>
<feOffset dy="4"/>
<feGaussianBlur stdDeviation="6"/>
<feComposite in2="hardAlpha" operator="out"/>
<feColorMatrix type="matrix" values="0 0 0 0 0 0 0 0 0 0 0 0 0 0 0 0 0 0 0.03 0"/>
<feBlend mode="normal" in2="BackgroundImageFix" result="effect1_dropShadow_86_14417"/>
<feBlend mode="normal" in="SourceGraphic" in2="effect1_dropShadow_86_14417" result="shape"/>
</filter>
</defs>
</svg>
