<svg width="7" height="29" viewBox="0 0 7 29" fill="none" xmlns="http://www.w3.org/2000/svg">
<path d="M6.621 25.1037C6.621 25.9317 6.33438 26.6402 5.76115 27.2294C5.172 27.8026 4.45546 28.0892 3.61154 28.0892C2.79946 28.0892 2.09885 27.8026 1.50969 27.2294C0.920538 26.6402 0.625961 25.9317 0.625961 25.1037C0.625961 24.2757 0.920538 23.5671 1.50969 22.9779C2.09885 22.3888 2.79946 22.0942 3.61154 22.0942C4.45546 22.0942 5.172 22.3888 5.76115 22.9779C6.33438 23.5671 6.621 24.2757 6.621 25.1037ZM6.621 14.3276C6.621 15.1556 6.33438 15.8642 5.76115 16.4533C5.172 17.0265 4.45546 17.3132 3.61154 17.3132C2.79946 17.3132 2.09885 17.0265 1.50969 16.4533C0.920538 15.8642 0.625961 15.1556 0.625961 14.3276C0.625961 13.4996 0.920538 12.791 1.50969 12.2019C2.09885 11.6127 2.79946 11.3181 3.61154 11.3181C4.45546 11.3181 5.172 11.6127 5.76115 12.2019C6.33438 12.791 6.621 13.4996 6.621 14.3276ZM6.621 3.55152C6.621 4.37952 6.33438 5.08809 5.76115 5.67725C5.172 6.25048 4.45546 6.5371 3.61154 6.5371C2.79946 6.5371 2.09885 6.25048 1.50969 5.67725C0.920538 5.08809 0.625961 4.37952 0.625961 3.55152C0.625961 2.72352 0.920538 2.01494 1.50969 1.42579C2.09885 0.836633 2.79946 0.542056 3.61154 0.542056C4.45546 0.542056 5.172 0.836633 5.76115 1.42579C6.33438 2.01494 6.621 2.72352 6.621 3.55152Z" fill="white"/>
</svg>
