<svg width="102" height="102" viewBox="0 0 102 102" fill="none" xmlns="http://www.w3.org/2000/svg">
<mask id="mask0_778_1194" style="mask-type:alpha" maskUnits="userSpaceOnUse" x="0" y="0" width="102" height="102">
<rect width="102" height="102" fill="#D9D9D9"/>
</mask>
<g mask="url(#mask0_778_1194)">
<path d="M17 89.25C14.6625 89.25 12.6615 88.4177 10.9969 86.7531C9.33229 85.0885 8.5 83.0875 8.5 80.75V29.75H17V80.75H80.75V89.25H17ZM34 72.25C31.6625 72.25 29.6615 71.4177 27.9969 69.7531C26.3323 68.0885 25.5 66.0875 25.5 63.75V12.75H97.75V63.75C97.75 66.0875 96.9177 68.0885 95.2531 69.7531C93.5885 71.4177 91.5875 72.25 89.25 72.25H34ZM34 63.75H89.25V21.25H34V63.75ZM42.5 51H59.5V29.75H42.5V51ZM63.75 51H80.75V42.5H63.75V51ZM63.75 38.25H80.75V29.75H63.75V38.25Z" fill="white"/>
</g>
</svg>
