<svg width="107" height="107" viewBox="0 0 107 107" fill="none" xmlns="http://www.w3.org/2000/svg">
<circle cx="53.5" cy="53.5" r="53.5" fill="#D5DAD7"/>
<path d="M23.8408 37.9459C22.7633 38.3956 20.8707 39.1732 19.6527 39.6792L17.4229 40.6067V43.0708C17.4229 44.4293 17.4416 45.5443 17.4697 45.5443C17.554 45.5443 25.7146 41.8809 25.7895 41.806C25.827 41.7685 25.8458 40.7004 25.8364 39.4356L25.8083 37.1307L23.8408 37.9459Z" fill="#0F3834"/>
<path d="M20.9834 47.2776L16.3457 49.2732L16.3176 51.6155L16.2988 53.9578L19.0815 52.7117C20.618 52.0278 22.7636 51.0627 23.841 50.5849L25.8086 49.6948L25.8367 47.4837C25.8554 45.7317 25.8367 45.2632 25.743 45.2726C25.6774 45.2819 23.5319 46.1814 20.9834 47.2776Z" fill="#0F3834"/>
<path d="M20.421 55.4288L15.0337 57.8835L15.0056 60.3383C14.9962 61.6781 14.9962 62.7836 15.0243 62.7836C15.0431 62.7836 15.3054 62.6712 15.6052 62.54C15.8957 62.4089 16.2986 62.2496 16.4766 62.184C16.664 62.1184 18.847 61.1253 21.3392 59.9729L25.8551 57.8742V55.4101C25.8551 54.0515 25.8458 52.946 25.8364 52.9553C25.8177 52.9647 23.3817 54.0703 20.421 55.4288Z" fill="#0F3834"/>
<path d="M33.678 53.6862C33.069 53.8548 32.8348 54.0047 32.3101 54.5575C31.7292 55.1571 31.6449 55.3632 31.4669 56.4313C31.3451 57.1528 31.4575 58.2302 31.7292 58.8205C31.9916 59.4107 32.4506 59.9167 32.9847 60.2071C33.425 60.4507 33.5843 60.4882 34.2402 60.4788C34.8679 60.4788 35.074 60.4413 35.4675 60.2352C36.1046 59.8979 36.189 59.7855 35.9828 59.5232L35.8236 59.3077L35.3645 59.5419C35.0272 59.7293 34.7742 59.7855 34.362 59.7855C33.425 59.7855 32.9097 59.4295 32.4881 58.5207C32.2164 57.9117 32.1883 56.525 32.4413 55.7942C32.6568 55.1852 33.1627 54.5856 33.5937 54.4451C33.9403 54.3326 35.2146 54.3607 35.5144 54.4825C35.6174 54.5294 35.6924 54.4732 35.7673 54.3045C35.9172 53.9766 35.9266 53.986 35.5612 53.8361C35.1583 53.6674 34.0621 53.5831 33.678 53.6862Z" fill="#0F3834"/>
<path d="M64.7376 53.8267C64.6908 53.9579 64.0818 55.485 63.3791 57.209C62.6858 58.9329 62.1143 60.3664 62.1143 60.3945C62.1143 60.4226 62.3016 60.4413 62.5265 60.4413H62.9387L63.2011 59.6918L63.4541 58.9423H64.7845H66.1055L66.3304 59.6543C66.4522 60.0478 66.6115 60.3851 66.6677 60.4132C66.7333 60.432 66.93 60.4413 67.108 60.4226L67.436 60.3945L66.1805 57.031C65.4965 55.1852 64.9063 53.6487 64.8875 53.6206C64.8594 53.5925 64.7938 53.6862 64.7376 53.8267ZM65.3279 56.9466L65.7401 58.2864H64.7751H63.8101L64.2973 56.8904C64.569 56.1128 64.8126 55.5131 64.8407 55.5506C64.8782 55.5881 65.0937 56.2158 65.3279 56.9466Z" fill="#0F3834"/>
<path d="M82.7169 53.7236C81.9486 53.9391 81.2834 54.5668 80.8618 55.4757C80.6463 55.9441 80.6182 56.1034 80.6182 57.1153C80.6182 58.1553 80.6369 58.2864 80.8899 58.8205C81.4239 59.9916 82.4826 60.6287 83.6444 60.4976C84.1597 60.432 84.7687 60.2071 85.106 59.9541C85.2747 59.823 85.2747 59.8042 85.1154 59.5232L84.9467 59.2421L84.6188 59.4857C84.319 59.7199 84.2066 59.7386 83.4664 59.7386C82.6981 59.7386 82.6325 59.7199 82.2953 59.4482C81.7331 58.9985 81.4801 58.3989 81.4333 57.4057C81.3583 55.9722 81.7612 54.9416 82.5295 54.5387C82.9511 54.3326 84.0192 54.2764 84.4783 54.4544C84.6938 54.5294 84.7594 54.52 84.853 54.3888C85.0592 54.1078 84.9936 53.911 84.675 53.7986C84.1972 53.6299 83.1853 53.5925 82.7169 53.7236Z" fill="#0F3834"/>
<path d="M88.2351 57.0216L86.8672 60.4507L87.2982 60.4226L87.7385 60.3945L87.9821 59.6918L88.2257 58.9891H89.5749H90.9147L91.1489 59.7105L91.3831 60.4413H91.786C92.0109 60.4413 92.1889 60.4132 92.1889 60.3664C92.1889 60.2446 89.7435 53.7424 89.6686 53.6674C89.6311 53.6299 88.9846 55.1384 88.2351 57.0216ZM90.5024 58.2115C90.5024 58.2583 90.0808 58.2864 89.5655 58.2864C89.0502 58.2864 88.6286 58.249 88.6286 58.2021C88.6286 58.1553 88.6848 57.9772 88.7504 57.8086C88.8254 57.6306 89.0408 57.031 89.2376 56.4688L89.603 55.4382L90.0527 56.7874C90.2963 57.5369 90.5024 58.174 90.5024 58.2115Z" fill="#0F3834"/>
<path d="M38.5502 53.8173C38.5221 53.8735 38.5127 55.382 38.5221 57.1621L38.5502 60.3945L38.9531 60.4226L39.3466 60.4507V57.0778V53.6955H38.9718C38.7563 53.6955 38.5689 53.7424 38.5502 53.8173Z" fill="#0F3834"/>
<path d="M41.9697 57.0591V60.4413H42.3445H42.7193V58.0522C42.7193 56.2065 42.7474 55.6631 42.8411 55.6631C42.8973 55.6631 43.7311 56.7592 44.6774 58.099C45.6237 59.4388 46.4107 60.535 46.4295 60.535C46.4482 60.535 46.4669 58.9891 46.4669 57.1059V53.6861L46.1203 53.7143L45.7643 53.7424L45.7361 56.0097C45.7174 57.743 45.6893 58.2864 45.5956 58.2864C45.5394 58.2771 44.743 57.2652 43.8436 56.0191C42.9441 54.773 42.1477 53.7424 42.0915 53.7143C41.9978 53.6861 41.9697 54.3982 41.9697 57.0591Z" fill="#0F3834"/>
<path d="M48.9971 57.0684V60.4413H50.9178H52.8384V60.0666V59.6918H51.2925H49.7372L49.7653 58.3989L49.7935 57.1153L50.899 57.0872L51.9952 57.0591V56.7874V56.5157L50.899 56.4875L49.7935 56.4594L49.7653 55.4476L49.7372 54.4451H51.3394H52.9321V54.0703V53.6955H50.9646H48.9971V57.0684Z" fill="#0F3834"/>
<path d="M55.6964 53.808C55.6777 53.8735 55.3966 55.2977 55.0874 56.9747C54.7782 58.6518 54.5065 60.1134 54.4784 60.2259C54.4316 60.4226 54.4597 60.4413 54.8063 60.4413C55.0124 60.4413 55.1811 60.4132 55.1811 60.3851C55.1811 60.3195 55.8276 56.7311 55.8838 56.4313C55.9494 56.1596 56.1742 56.169 56.2492 56.4501C56.4272 57.1621 57.6546 60.535 57.7108 60.4695C57.7483 60.432 58.0855 59.4669 58.4603 58.3333C59.2192 56.0378 59.2005 56.0847 59.3035 56.1971C59.3691 56.2533 60.1468 60.179 60.1468 60.4039C60.1468 60.4226 60.3154 60.4413 60.5215 60.4413C60.8682 60.4413 60.8963 60.4226 60.8495 60.2259C60.8214 60.1134 60.5122 58.605 60.1561 56.8811C59.6877 54.5669 59.4909 53.733 59.3879 53.7143C59.2848 53.6955 59.0693 54.2858 58.5072 56.1315C58.1043 57.4713 57.7295 58.5675 57.6639 58.5675C57.6077 58.5675 57.2048 57.4807 56.7645 56.1596C56.0431 53.9485 55.8182 53.4613 55.6964 53.808Z" fill="#0F3834"/>
<path d="M67.7354 54.0703V54.4451H68.8128H69.8903V57.4526V60.4507L70.2931 60.4226L70.6866 60.3945L70.7148 57.4151L70.7335 54.4451H71.8578H72.9821V54.0703V53.6955H70.3587H67.7354V54.0703Z" fill="#0F3834"/>
<path d="M74.8564 57.0684V60.4413H76.7771H78.6978V60.0666V59.6918H77.1519H75.606V58.3801V57.0684H76.7303H77.8546V56.7874V56.5063H76.7303H75.606V55.4757V54.4451H77.2081H78.8009L78.7728 54.089L78.7447 53.7424L76.8052 53.7143L74.8564 53.6955V57.0684Z" fill="#0F3834"/>
<path d="M21.058 63.2334L20.4209 63.2615V66.5782V69.9042H20.9831H21.5452V68.6394V67.3746L21.9012 67.4308C22.4353 67.5151 23.4003 67.3183 23.8781 67.0279C24.4497 66.6812 24.8244 65.9692 24.8244 65.2477C24.8244 64.6762 24.6651 64.2733 24.2904 63.8517C23.8688 63.3833 22.6508 63.149 21.058 63.2334ZM23.0162 64.3951C23.419 64.5169 23.6064 64.798 23.6064 65.2946C23.6064 66.0441 23.2785 66.3158 22.2479 66.4095L21.6389 66.4657V65.3789C21.6389 64.6013 21.6764 64.2827 21.7607 64.2546C21.9012 64.189 22.6227 64.2733 23.0162 64.3951Z" fill="#0F3834"/>
<path d="M31.9731 63.224L31.4766 63.2615V66.5875V69.9042H32.0387H32.6009V68.4989V67.0935H33.0506H33.4909L34.381 68.4989L35.2711 69.8949L35.8613 69.9042C36.3111 69.9042 36.4329 69.8761 36.386 69.7824C36.3485 69.7262 35.9363 69.1079 35.4772 68.4145C35.0088 67.7212 34.6246 67.0841 34.6059 67.0092C34.5871 66.9155 34.737 66.7468 34.9713 66.5782C36.208 65.6787 36.0206 63.9735 34.6152 63.3833C34.2311 63.224 32.9101 63.1397 31.9731 63.224ZM33.7345 64.2827C34.3623 64.3951 34.5684 64.62 34.5684 65.1728C34.5684 65.4164 34.5028 65.6506 34.4091 65.7724C34.2124 65.9973 33.3129 66.2128 32.9382 66.1191C32.6946 66.0629 32.6946 66.0441 32.6946 65.1822C32.6946 64.7043 32.7227 64.2827 32.7601 64.2546C32.8445 64.1609 33.1443 64.1703 33.7345 64.2827Z" fill="#0F3834"/>
<path d="M44.6504 65.763C44.0788 67.1872 43.4886 68.705 43.3199 69.1266L43.0107 69.9042H43.5916H44.1725L44.4068 69.2203L44.641 68.5457L45.8777 68.5176C47.0863 68.4895 47.1145 68.4989 47.18 68.705C47.2081 68.8268 47.3206 69.1453 47.4236 69.4077L47.6017 69.9042H48.1732C48.6697 69.9042 48.726 69.8855 48.6791 69.7356C48.6416 69.6513 48.042 68.1335 47.3487 66.3627C46.2244 63.5332 46.0557 63.1584 45.8777 63.1584C45.6997 63.1584 45.5498 63.477 44.6504 65.763ZM46.2806 66.4845C46.4867 67.0935 46.6366 67.6088 46.6179 67.6275C46.5991 67.6463 46.2525 67.6556 45.8402 67.6369L45.1001 67.6088L45.4655 66.4564C45.6716 65.8193 45.8496 65.3227 45.8683 65.3414C45.8965 65.3602 46.0745 65.8755 46.2806 66.4845Z" fill="#0F3834"/>
<path d="M57.3637 63.224L56.7734 63.2614V66.5875V69.9229L58.2069 69.8855C59.5374 69.8574 59.6592 69.8386 60.1182 69.595C60.3806 69.4639 60.7179 69.1921 60.8678 68.9954C61.102 68.6862 61.1301 68.5831 61.1301 67.9273C61.1301 67.1028 60.9989 66.8405 60.3993 66.447C60.0152 66.194 59.9683 66.0254 60.2307 65.8754C60.5024 65.7349 60.8022 65.1915 60.8022 64.8542C60.8022 64.2171 60.4087 63.6737 59.7435 63.3926C59.3593 63.2333 58.31 63.1584 57.3637 63.224ZM59.4624 64.4232C59.7435 64.7418 59.7341 65.1447 59.453 65.4726C59.2563 65.6974 59.1532 65.7349 58.563 65.763L57.8977 65.8005V65.0135C57.8977 64.5731 57.9258 64.189 57.9727 64.1515C58.0102 64.1047 58.31 64.0953 58.6473 64.1234C59.1532 64.1609 59.2844 64.2077 59.4624 64.4232ZM59.4905 66.8873C60.0339 67.1497 60.2119 67.8242 59.9121 68.4051C59.6779 68.8549 58.8628 69.1359 58.1882 69.0048L57.8977 68.9392V67.8336V66.7187H58.5348C58.9471 66.7187 59.275 66.7749 59.4905 66.8873Z" fill="#0F3834"/>
<path d="M70.3866 63.4395C69.281 63.9923 68.6814 64.976 68.5971 66.3439C68.5127 67.9554 69.0093 69.0797 70.0868 69.67C70.9675 70.1478 72.3822 70.101 73.1973 69.5669C73.5346 69.3421 73.544 69.3327 73.4128 69.0797C73.1224 68.5551 73.1411 68.5644 72.6539 68.8174C72.3166 68.9954 72.0637 69.061 71.6608 69.061C70.7801 69.061 70.3397 68.808 69.9556 68.0772C69.6839 67.5619 69.6183 66.1753 69.8338 65.5288C70.0212 64.9667 70.4803 64.3951 70.8832 64.2265C71.286 64.0578 72.2417 64.0578 72.6446 64.2265L72.9537 64.3577L73.1505 63.9548L73.3379 63.5613L73.0006 63.3926C72.7664 63.2802 72.3635 63.2052 71.8107 63.1865C71.0143 63.149 70.9394 63.1584 70.3866 63.4395Z" fill="#0F3834"/>
<path d="M76.59 63.5519C76.4682 63.8611 74.407 69.0797 74.1353 69.7918C74.0978 69.8855 74.2196 69.9042 74.6693 69.8855L75.2596 69.8574L75.4938 69.1734L75.7187 68.4895L76.946 68.5176L78.1828 68.5457L78.417 69.2015L78.6512 69.8574L79.2415 69.8855L79.8317 69.9136L79.7006 69.6044C79.635 69.4358 79.026 67.918 78.3608 66.2315C77.3021 63.5332 77.124 63.1584 76.9554 63.1584C76.8055 63.1584 76.7118 63.2615 76.59 63.5519ZM76.9835 67.6369C76.5713 67.6556 76.2246 67.6463 76.2059 67.6369C76.1778 67.6088 76.7493 65.7256 76.8804 65.407C76.9179 65.3227 77.0959 65.7443 77.3395 66.4376L77.733 67.6088L76.9835 67.6369Z" fill="#0F3834"/>
<path d="M87.9914 66.0348C87.3731 67.6275 86.7734 69.1453 86.6704 69.4077L86.4736 69.9042H87.0639H87.6542L87.879 69.2015L88.1039 68.4989H89.3312H90.5586L90.8022 69.1734L91.0364 69.8574L91.6267 69.8855C91.9546 69.9042 92.1888 69.8761 92.1795 69.8293C92.1607 69.7824 91.5517 68.2646 90.8397 66.447C89.6873 63.5332 89.5093 63.1584 89.3312 63.1584C89.1532 63.1584 88.9939 63.4957 87.9914 66.0348ZM89.7529 66.5032L90.1089 67.6088L89.3593 67.6369C88.9471 67.6556 88.5911 67.6463 88.5723 67.6275C88.5536 67.6088 88.7129 67.0841 88.919 66.447C89.1345 65.8193 89.3219 65.3227 89.35 65.3508C89.3781 65.3695 89.5561 65.8942 89.7529 66.5032Z" fill="#0F3834"/>
<path d="M26.043 66.5782V69.9042H28.1042H30.1654V69.4358V68.9673H28.6195H27.0736V67.8899V66.8124H28.1979H29.3222V66.3439V65.8848L28.226 65.8567L27.1204 65.8286L27.0923 65.0041L27.0642 64.189H28.6663H30.2591V63.7206V63.2521H28.151H26.043V66.5782Z" fill="#0F3834"/>
<path d="M37.2852 66.5782V69.9042H37.8005H38.3158V67.8336C38.3158 66.2315 38.3439 65.7724 38.4282 65.8005C38.4938 65.8286 39.2621 66.7656 40.124 67.8992C41.0422 69.0891 41.7824 69.9605 41.8854 69.9792C42.0541 70.0073 42.0634 69.8949 42.0634 66.6344V63.2521H41.5481H41.0328V65.2196C41.0328 66.7281 41.0047 67.1872 40.9204 67.1872C40.8548 67.1872 40.1053 66.2971 39.2621 65.2196C38.0347 63.6456 37.6787 63.2521 37.51 63.2521H37.2852V66.5782Z" fill="#0F3834"/>
<path d="M49.8025 66.3627C49.4559 68.0772 49.1467 69.5763 49.1186 69.6887C49.0717 69.8949 49.0999 69.9042 49.5871 69.9042H50.093L50.4022 68.3302C50.7395 66.6344 50.8332 66.3065 50.9456 66.3814C50.9924 66.4095 51.3204 67.234 51.6764 68.2084C52.1823 69.6044 52.3603 69.9979 52.4915 69.9979C52.5758 69.9979 52.6508 69.9886 52.6508 69.9698C52.6508 69.848 53.8969 66.5594 53.9718 66.4845C54.1311 66.3252 54.1967 66.5501 54.5246 68.2646L54.8338 69.9042H55.3491C55.8269 69.9042 55.855 69.8949 55.8082 69.6887C55.7801 69.5763 55.4709 68.0772 55.1242 66.3627L54.4871 63.2521H54.2342C53.9625 63.2521 53.9718 63.224 52.9131 66.6531C52.5571 67.8149 52.4259 67.8899 52.1729 67.0935C52.0793 66.8124 51.7701 65.8286 51.4703 64.9104C50.955 63.3083 50.9268 63.2521 50.6832 63.2521H50.4396L49.8025 66.3627Z" fill="#0F3834"/>
<path d="M62.3945 65.5944C62.3945 68.3583 62.4507 68.7425 62.9754 69.3046C63.4251 69.7918 63.9779 69.9979 64.8399 69.9979C65.908 69.9979 66.7044 69.595 67.1072 68.8455C67.304 68.4707 67.3134 68.3396 67.3415 65.8474L67.3696 63.2521H66.8074H66.2359V65.7349C66.2359 68.5176 66.2078 68.6862 65.6269 68.9298C65.2053 69.0985 64.4276 69.0985 64.081 68.9205C63.5469 68.6488 63.5188 68.4707 63.5188 65.7349V63.2521H62.9567H62.3945V65.5944Z" fill="#0F3834"/>
<path d="M80.7588 66.5782V69.9042H81.2741H81.7894V67.843C81.7894 66.1191 81.8081 65.7912 81.9206 65.838C81.9955 65.8661 82.7638 66.8124 83.6258 67.9461C84.6564 69.2952 85.256 69.9979 85.3684 69.9979C85.5277 69.9979 85.5371 69.8293 85.5371 66.625V63.2521H85.0218H84.5065V65.2665C84.5065 66.9248 84.4877 67.2621 84.3753 67.2246C84.3097 67.1965 83.5602 66.2971 82.717 65.2103C81.5271 63.6831 81.1336 63.2521 80.9743 63.2521H80.7588V66.5782Z" fill="#0F3834"/>
</svg>
