<svg width="107" height="107" viewBox="0 0 107 107" fill="none" xmlns="http://www.w3.org/2000/svg">
<circle cx="53.5" cy="53.5" r="53.5" fill="#D5DAD7"/>
<path d="M52.7279 17.1084C50.4242 17.3939 47.6972 18.4571 45.9841 19.737C44.3401 20.9676 42.7747 22.8677 41.8985 24.6791C40.9731 26.6087 40.727 27.6326 40.6581 29.8969C40.6088 31.5115 40.599 31.6001 40.2938 32.2597C40.0378 32.8405 39.9788 33.0965 39.9492 33.8841C39.9 35.0261 40.0772 35.7743 40.6482 36.8868C41.1011 37.763 42.184 38.9444 42.8042 39.2299C43.1094 39.3775 43.2374 39.5351 43.582 40.234C44.8815 42.902 47.2443 45.058 50.0599 46.141C51.3988 46.6628 52.4227 46.8794 53.8601 46.9483C55.9078 47.0369 57.5421 46.7317 59.4815 45.885C60.6924 45.3534 61.7064 44.6741 62.7402 43.6994C63.8231 42.6756 64.6205 41.6025 65.2408 40.3325C65.7035 39.3874 65.7625 39.3185 66.3631 38.9247C67.1507 38.4029 67.7807 37.6448 68.2828 36.6013C68.7554 35.6168 68.9129 34.8292 68.8538 33.7167C68.8243 32.9981 68.7554 32.7421 68.4994 32.2006C68.1942 31.5705 68.1844 31.5016 68.1844 30.2809C68.1844 28.0165 67.83 26.5595 66.7963 24.5019C66.0382 23.0055 65.2506 21.9619 63.8625 20.6526C62.1199 18.9986 59.8556 17.8763 57.0597 17.2856C56.4296 17.1478 53.3974 17.0296 52.7279 17.1084ZM58.2903 20.1505C58.4675 20.3178 58.5364 20.495 58.5364 20.7707C58.5364 21.1153 58.4478 21.2629 57.8079 21.9816C55.8783 24.177 54.3228 25.3092 51.2118 26.7958C49.0262 27.8492 44.6551 29.5523 44.153 29.5523C44.0447 29.5523 43.8183 29.4244 43.6608 29.2668C43.4343 29.0404 43.3753 28.8927 43.3753 28.5678C43.3753 28.0658 43.6312 27.7803 44.3105 27.5341C45.9251 26.9434 48.6915 25.7522 50.2175 24.9745C53.1119 23.5076 54.8446 22.336 56.4591 20.7608C57.2369 20.0028 57.3747 19.9043 57.6897 19.9043C57.9457 19.9043 58.1229 19.9733 58.2903 20.1505ZM60.3282 24.8957C60.466 25.0532 60.7318 25.4175 60.9189 25.7128C61.1059 26.0082 61.5982 26.6678 62.0116 27.1797C62.8583 28.2134 62.9469 28.4989 62.5236 28.9124C62.0018 29.444 61.5095 29.1881 60.466 27.8393C59.4618 26.5595 59.0286 25.831 59.0286 25.4372C59.0286 24.689 59.8261 24.3641 60.3282 24.8957Z" fill="#0F3834"/>
<path d="M38.7881 21.8143C38.1186 22.1293 37.971 22.5231 38.3549 22.9366C38.6207 23.2221 38.985 23.2123 39.6052 22.9071C40.1565 22.6314 40.3141 22.3262 40.1172 21.9423C39.8809 21.4992 39.5363 21.4697 38.7881 21.8143Z" fill="#0F3834"/>
<path d="M68.2041 21.6961C68.1352 21.765 68.0859 22.0013 68.0859 22.2376C68.0859 22.6117 68.1253 22.6905 68.3911 22.848C68.5585 22.9464 68.8932 23.0941 69.1393 23.163C69.5824 23.2811 69.6021 23.2811 69.8285 23.0153C70.2617 22.5034 70.0549 21.9915 69.2969 21.7355C68.7554 21.5484 68.3616 21.5386 68.2041 21.6961Z" fill="#0F3834"/>
<path d="M34.9981 23.6356C34.6634 23.9801 34.624 24.3444 34.9095 24.6299C35.1852 24.9056 35.6479 24.8859 35.9432 24.5807C36.2484 24.2853 36.2681 23.8226 35.9924 23.547C35.7069 23.2615 35.3427 23.3009 34.9981 23.6356Z" fill="#0F3834"/>
<path d="M72.3392 23.4682C72.0143 23.8915 72.1521 24.5413 72.6247 24.7776C72.9889 24.9745 73.1268 24.9646 73.4418 24.7185C74.0227 24.2657 73.5993 23.3501 72.8117 23.3501C72.605 23.3501 72.3982 23.4091 72.3392 23.4682Z" fill="#0F3834"/>
<path d="M75.1644 25.3092C74.8296 25.6538 74.8001 25.9786 75.0856 26.3429C75.2431 26.5398 75.3711 26.5989 75.6665 26.5989C75.9618 26.5989 76.0898 26.5398 76.2473 26.3429C76.3654 26.1952 76.454 26.018 76.454 25.9393C76.454 25.6439 76.1489 25.2403 75.8535 25.132C75.4499 24.9942 75.4991 24.9745 75.1644 25.3092Z" fill="#0F3834"/>
<path d="M32.566 25.3683C32.3297 25.5652 32.251 25.7128 32.251 25.9688C32.251 26.6875 33.009 26.9533 33.4717 26.3921C33.7671 26.0377 33.7966 25.7227 33.5603 25.4372C33.265 25.0926 32.9204 25.0729 32.566 25.3683Z" fill="#0F3834"/>
<path d="M77.9311 27.4062C77.6554 27.7113 77.6652 28.2725 77.9606 28.5482C78.443 29.0109 79.2109 28.6663 79.2109 27.987C79.2109 27.3176 78.3741 26.9336 77.9311 27.4062Z" fill="#0F3834"/>
<path d="M80.7068 29.4539C80.2342 29.6508 80.185 30.3301 80.6083 30.7338C81.0021 31.098 81.5731 30.9503 81.7602 30.4286C81.8882 30.0545 81.711 29.6508 81.327 29.4736C81.0317 29.3358 81.012 29.3358 80.7068 29.4539Z" fill="#0F3834"/>
<path d="M28.7065 29.6902C24.5913 30.4384 21.6182 33.9727 21.6182 38.1174C21.6182 40.3128 22.4353 42.3015 24.0105 43.985C25.1919 45.2451 26.5111 46.0228 27.9681 46.328C28.549 46.4462 28.5588 46.456 28.5883 46.8006C28.6179 47.1353 28.5982 47.155 28.1453 47.3027C26.9836 47.6866 25.694 48.74 25.0343 49.8427C24.296 51.0831 24.2271 51.4966 24.2271 54.5091C24.2271 57.0294 24.2369 57.2066 24.4633 57.9056C24.6504 58.5062 24.6799 58.7621 24.6307 59.2839C24.5323 60.3472 24.0892 64.4623 23.725 67.7013C22.7208 76.7192 22.7208 76.7094 22.9374 77.8022C23.2721 79.4364 23.9809 80.667 25.2706 81.8681C26.9147 83.3842 29.307 84.034 31.4926 83.5417C32.1522 83.3941 33.6289 82.8132 38.2265 80.9132C39.211 80.5095 40.038 80.1945 40.0576 80.224C40.0872 80.2535 40.1167 81.9567 40.1266 84.0241C40.1364 87.5388 40.1463 87.7947 40.3235 88.0802C40.8354 88.9171 41.9774 88.8678 42.6272 87.9916C42.8339 87.7258 42.8339 87.6471 42.8634 77.2804C42.893 66.8842 42.893 66.8448 42.6862 66.4215C42.4204 65.88 41.9676 65.6437 41.2883 65.7028C40.9634 65.7422 40.7271 65.8308 40.5499 65.9883C40.0281 66.4707 40.0281 66.451 40.0281 71.9838C40.0281 76.7783 40.0183 77.113 39.8608 77.1721C39.7623 77.2016 38.197 77.8514 36.3855 78.6094C30.7247 80.9624 31.2858 80.7753 30.0355 80.7852C29.1003 80.7852 28.8739 80.7556 28.4111 80.5587C27.2298 80.0468 26.2945 79.0426 25.881 77.8711C25.6349 77.1524 25.6644 76.0202 25.9795 73.116C26.7375 66.3033 27.2298 61.6664 27.2298 61.4203C27.2298 61.1052 27.2987 61.0954 27.7712 61.3218L28.1158 61.4892V62.5426C28.1158 63.7043 28.2044 64.0292 28.5785 64.1965C28.7163 64.2556 29.3759 64.3048 30.134 64.3048C31.404 64.3048 31.4631 64.295 31.7486 64.0488C32.0439 63.8027 32.0439 63.7929 32.0734 62.6509C32.103 61.5384 32.1128 61.499 32.3294 61.4695C32.5066 61.44 32.546 61.4793 32.546 61.7156C32.546 61.8633 32.5952 62.5032 32.6444 63.1234C32.7626 64.5706 33.117 70.9304 33.2253 73.559C33.2942 75.1342 33.3434 75.656 33.4813 75.9218C33.9243 76.8472 35.1352 76.985 35.8637 76.1974C36.2969 75.7347 36.3067 75.6166 36.0902 71.9445C35.9819 70.0444 35.844 67.6422 35.7948 66.6184C35.7357 65.5847 35.6373 63.8618 35.5684 62.7789C35.5093 61.6959 35.4502 60.3176 35.4601 59.7269C35.4601 58.7425 35.4896 58.5554 35.8047 57.7284L36.1394 56.8129L36.8777 56.488C37.5472 56.1926 39.083 55.4543 46.8605 51.664L49.2232 50.522L50.2963 50.8764C51.3694 51.2308 51.3694 51.2308 52.2259 51.1225C52.6985 51.0634 54.4607 51.0142 56.1442 51.0142H59.2158L60.2101 50.6499L61.2143 50.2955L62.2874 50.6499L63.3507 51.0142L66.8751 51.0044L70.3996 50.9945L69.8581 50.7484C68.8638 50.2857 61.3029 47.2731 61.1454 47.2731C61.0667 47.2731 60.5843 47.4504 60.0822 47.6571C56.7152 49.0945 53.4369 49.1929 49.8927 47.9623L48.7408 47.5685L42.4696 50.6893L36.1886 53.82V54.6962C36.1886 56.2714 36.0508 55.4838 35.9819 53.5443C35.9326 51.8609 35.8933 51.5852 35.6767 50.9945C35.0072 49.1929 33.6585 47.8146 32.1128 47.3322C31.591 47.1649 31.5615 47.1353 31.5615 46.84C31.5615 46.5348 31.5714 46.5249 32.2703 46.3576C33.0481 46.1804 34.3575 45.5897 35.0663 45.0974C35.9622 44.487 37.0254 43.2958 37.6555 42.203C38.2265 41.2284 38.6203 39.8403 38.7089 38.5604C38.9353 35.3018 36.9762 31.9643 33.944 30.4482C32.5066 29.7295 30.2817 29.4047 28.7065 29.6902ZM32.0833 32.496C33.9341 33.1457 35.4601 34.839 35.9523 36.749C36.1886 37.6842 36.1 39.2299 35.7554 40.1258C35.1549 41.7009 33.9932 42.9315 32.5066 43.5616C31.02 44.2015 29.5433 44.2409 28.0567 43.6798C24.6307 42.3901 23.1737 38.2158 25.0343 35.0852C25.7924 33.8152 26.9935 32.8602 28.3915 32.4369C29.0511 32.24 29.2972 32.2105 30.3309 32.2498C31.1972 32.2794 31.6698 32.3483 32.0833 32.496ZM31.1086 49.8427C31.8273 50.1085 32.5657 50.7878 32.9103 51.4868C33.1859 52.0381 33.1859 52.0676 33.2154 54.2433C33.2548 56.7046 33.2056 56.9802 32.6051 57.7875C31.7682 58.9295 29.9371 59.3824 28.7065 58.7425C28.165 58.4569 27.594 57.8564 27.3184 57.2756L27.0329 56.675V54.4107C27.0329 52.5106 27.0624 52.0676 27.2002 51.6738C27.5153 50.8075 28.3127 50.0986 29.3267 49.7836C29.9273 49.5867 30.4983 49.6064 31.1086 49.8427Z" fill="#0F3834"/>
<path d="M31.8866 33.7856C31.5815 33.9136 31.3353 34.3271 31.4042 34.6028C31.4338 34.7307 31.7587 35.1049 32.1229 35.4297C32.497 35.7645 32.94 36.2862 33.1271 36.6013C33.3142 36.9262 33.5603 37.2806 33.6686 37.3987C33.9344 37.7138 34.3676 37.6941 34.6727 37.3495C34.8893 37.1329 34.9189 37.0148 34.8795 36.6702C34.8204 36.1189 34.3085 35.2624 33.639 34.6028C32.9007 33.8644 32.3395 33.6084 31.8866 33.7856Z" fill="#0F3834"/>
<path d="M33.4616 39.6631C32.7823 40.5491 32.2014 41.0807 31.532 41.4154C31.1579 41.6025 30.7739 41.76 30.6755 41.76C30.577 41.76 30.39 41.8486 30.2423 41.9668C29.9272 42.2129 29.9076 42.6165 30.2029 42.9906C30.39 43.2368 30.4589 43.2564 30.9708 43.2171C32.3688 43.1186 34.4559 41.5139 34.8103 40.2636C34.9088 39.9289 34.7316 39.4662 34.4657 39.3579C34.0523 39.2003 33.7372 39.2988 33.4616 39.6631Z" fill="#0F3834"/>
<path d="M82.568 32.0825C82.2235 32.368 82.2038 32.811 82.509 33.1753C82.9225 33.6675 83.523 33.5789 83.7297 32.9981C83.9857 32.2597 83.1489 31.6099 82.568 32.0825Z" fill="#0F3834"/>
<path d="M84.6647 35.5381C84.2315 35.8236 84.33 36.5324 84.8321 36.749C85.088 36.8474 85.1668 36.8376 85.3932 36.6702C85.7476 36.4142 85.787 36.0008 85.5015 35.6956C85.2849 35.4691 84.8813 35.3904 84.6647 35.5381Z" fill="#0F3834"/>
<path d="M86.398 38.7278C86.1224 39.033 86.1421 39.4563 86.4571 39.7418C86.7918 40.0568 87.1266 40.0568 87.4318 39.7418C87.7271 39.4465 87.7468 39.1117 87.4711 38.7672C87.2053 38.4324 86.6934 38.4128 86.398 38.7278Z" fill="#0F3834"/>
<path d="M19.915 39.0527C19.6886 39.5252 19.7083 39.7517 19.9642 39.9289C20.3088 40.175 20.3482 40.1258 20.2793 39.5646C20.171 38.7278 20.1119 38.6392 19.915 39.0527Z" fill="#0F3834"/>
<path d="M87.9926 41.4253C87.5496 41.7305 87.8351 42.6461 88.3667 42.6461C88.6325 42.6461 89.0559 42.2227 89.0559 41.9569C89.0559 41.7009 88.6325 41.2678 88.3963 41.2678C88.2978 41.2678 88.1108 41.3367 87.9926 41.4253Z" fill="#0F3834"/>
<path d="M18.665 41.6813C18.3992 41.9668 18.4091 42.3999 18.6847 42.587C19.3246 43.0399 20.0236 42.3409 19.5511 41.7305C19.2951 41.4056 18.9407 41.3859 18.665 41.6813Z" fill="#0F3834"/>
<path d="M88.9769 44.0834C88.652 44.3098 88.6717 44.9301 89.0261 45.1959C89.6759 45.7176 90.4438 44.7036 89.8235 44.1228C89.5676 43.8865 89.2722 43.8668 88.9769 44.0834Z" fill="#0F3834"/>
<path d="M17.6802 44.2212C17.2864 44.615 17.5818 45.5011 18.1134 45.5011C18.3792 45.5011 18.7631 45.0482 18.7631 44.7332C18.7631 44.1425 18.0838 43.8176 17.6802 44.2212Z" fill="#0F3834"/>
<path d="M89.6073 46.8991C89.3808 47.224 89.4104 47.6374 89.6959 47.9131C90.1783 48.4053 90.9265 48.11 90.9265 47.4209C90.9265 46.9483 90.641 46.6825 90.1487 46.6825C89.8534 46.6825 89.7156 46.7416 89.6073 46.8991Z" fill="#0F3834"/>
<path d="M17.1088 46.9483C16.9414 47.0172 16.6953 47.5094 16.6953 47.795C16.6953 48.0805 17.0793 48.4546 17.3746 48.4546C17.7093 48.4546 18.0736 48.0312 18.0736 47.6276C18.0736 47.1255 17.5617 46.7612 17.1088 46.9483Z" fill="#0F3834"/>
<path d="M90.2369 50.9355C90.1286 51.0536 90.04 51.28 90.04 51.4277C90.04 51.7821 90.4338 52.1956 90.7784 52.1956C91.1328 52.1956 91.5168 51.7821 91.5168 51.408C91.5168 50.778 90.68 50.4629 90.2369 50.9355Z" fill="#0F3834"/>
<path d="M16.4199 51.0438C16.1639 51.3194 16.1442 51.7132 16.3608 52.0479C16.4888 52.235 16.6069 52.2941 16.8924 52.2941C17.3453 52.2941 17.621 52.0184 17.621 51.5557C17.621 50.8764 16.8728 50.5614 16.4199 51.0438Z" fill="#0F3834"/>
<path d="M51.3996 53.1407C50.8581 53.3278 50.3265 53.7905 49.9918 54.3418L49.726 54.8045L49.6964 71.2947C49.6767 83.8666 49.6964 87.8833 49.785 88.2181C49.9524 88.7989 50.5529 89.5373 51.0747 89.7933L51.5079 90H64.6508H77.7839L78.2762 89.7637C78.8275 89.5078 79.241 89.0746 79.5166 88.474C79.684 88.1196 79.7037 87.7751 79.7037 85.0972V82.1241H81.0623C81.8006 82.1241 82.7162 82.0749 83.0903 82.0256C85.5023 81.6712 87.6583 79.7318 88.2687 77.3592C88.7905 75.3311 88.2195 73.2145 86.7132 71.5802C86.0536 70.8615 85.0987 70.1724 84.5178 70.005C84.1339 69.8869 84.2225 70.0149 82.1058 66.4215L81.525 65.437L81.4954 68.3609L81.4757 71.2947L80.8851 71.3144C80.5602 71.3242 80.1762 71.3341 80.0285 71.3341L79.7529 71.3439L79.7037 63.025L79.6544 54.7061L79.4379 54.3024C79.1819 53.82 78.6503 53.3376 78.158 53.1309C77.6461 52.9143 52.01 52.9241 51.3996 53.1407ZM58.6553 55.5429H59.0097L59.0491 56.8916C59.0786 58.1419 59.0983 58.2798 59.3149 58.5849C59.7481 59.1855 59.7776 59.1855 64.4047 59.1855C69.0416 59.1855 69.0416 59.1855 69.4945 58.5554C69.6914 58.2798 69.7111 58.1124 69.7406 56.9113L69.7702 55.5724L73.3832 55.5232C75.3719 55.4936 77.0259 55.4936 77.0751 55.5133C77.1145 55.533 77.144 59.028 77.144 63.281V70.9994H76.5828C75.3818 70.9994 74.2496 71.4818 73.2159 72.4367C72.0148 73.5492 71.3847 74.9668 71.3946 76.5617C71.4044 78.1074 71.9164 79.2592 73.1076 80.4505C74.1807 81.5334 75.4507 82.1241 76.6714 82.1241H77.144V84.7822V87.4403H64.6902H52.2364V71.4621V55.4936L55.2588 55.5232C56.9324 55.533 58.4584 55.5429 58.6553 55.5429ZM67.0825 56.104L67.053 56.675L64.3752 56.7046L61.6875 56.7243V56.1336V55.5429H64.3949H67.112L67.0825 56.104ZM83.5629 72.6533C85.8075 73.7559 86.3588 76.5913 84.6556 78.2452C84.3997 78.5012 83.937 78.826 83.6416 78.9639L83.1002 79.2198L79.7135 79.2494L76.3269 79.2789L75.8051 79.0229C75.2341 78.7473 74.8009 78.3043 74.4662 77.6643C74.289 77.3395 74.2398 77.0835 74.2398 76.4633C74.2398 75.7741 74.2791 75.6068 74.5253 75.1637C75.1061 74.1103 75.7952 73.8642 78.1777 73.8544C79.4379 73.8544 79.4674 73.8445 79.7923 73.5787C80.0679 73.3523 80.127 73.2243 80.1762 72.7813L80.2254 72.2595L81.5644 72.2989C82.854 72.3284 82.9328 72.3383 83.5629 72.6533Z" fill="#0F3834"/>
<path d="M59.0587 61.8436C58.783 61.9519 58.4385 62.4934 58.4385 62.8084C58.4385 63.1923 58.724 63.6255 59.0784 63.7732C59.5706 63.9799 73.9343 63.9799 74.4266 63.7732C74.8598 63.596 75.0763 63.2613 75.0763 62.7986C75.0763 62.4934 75.0074 62.3457 74.7416 62.0799L74.4069 61.7451L66.846 61.755C62.593 61.755 59.1768 61.7944 59.0587 61.8436Z" fill="#0F3834"/>
<path d="M55.1797 62.1882C54.845 62.3654 54.6579 62.8281 54.7367 63.2613C54.8745 64.0095 55.7901 64.2654 56.3906 63.724C57.2766 62.9265 56.2331 61.6172 55.1797 62.1882Z" fill="#0F3834"/>
<path d="M59.0582 66.7168C58.5069 66.9531 58.2804 67.6915 58.5955 68.2329C58.9401 68.8138 58.5561 68.7843 66.4123 68.8138C70.3897 68.8335 73.8354 68.8138 74.0717 68.7843C74.3375 68.7449 74.6131 68.6169 74.81 68.4397C75.0857 68.1936 75.1251 68.0951 75.1152 67.7013C75.1054 67.3272 75.0463 67.1894 74.7903 66.9334L74.4851 66.6184L66.9243 66.5987C60.6432 66.579 59.324 66.5987 59.0582 66.7168Z" fill="#0F3834"/>
<path d="M54.9826 67.2484C54.5692 67.6619 54.5888 68.1542 55.0319 68.5972C55.3961 68.9614 55.6127 69.0008 56.1345 68.7842C56.5184 68.6267 56.8138 68.0754 56.7055 67.721C56.4791 66.9531 55.534 66.6971 54.9826 67.2484Z" fill="#0F3834"/>
<path d="M59.0587 71.6393C58.7338 71.7771 58.4385 72.2201 58.4385 72.5745C58.4385 72.9486 58.7141 73.4507 59.0193 73.5984C59.2753 73.7362 59.994 73.7559 64.6604 73.7559L70.0062 73.7461L70.4197 73.0766C70.6461 72.7124 71.0202 72.2004 71.2467 71.9543L71.6503 71.4916H65.5071C60.5059 71.5014 59.3147 71.5211 59.0587 71.6393Z" fill="#0F3834"/>
<path d="M55.0617 71.9838C54.5891 72.3579 54.6285 73.2637 55.1306 73.6082C55.4751 73.8544 56.0265 73.7953 56.3907 73.4704C56.6565 73.2341 56.7156 73.116 56.7156 72.7714C56.7156 72.4269 56.6565 72.3087 56.3907 72.0724C55.9969 71.718 55.4456 71.6885 55.0617 71.9838Z" fill="#0F3834"/>
<path d="M59.3244 76.3845C58.9404 76.5026 58.7042 76.6798 58.5762 76.926C58.2611 77.5462 58.5565 78.2944 59.1964 78.4815C59.4524 78.5602 61.0571 78.5799 64.3945 78.5602C69.6221 78.5307 69.4646 78.5405 69.7993 77.9794C69.9962 77.6446 69.9962 77.2804 69.7993 76.8964C69.504 76.3254 69.4449 76.3156 64.2271 76.3254C61.6084 76.3254 59.4031 76.355 59.3244 76.3845Z" fill="#0F3834"/>
<path d="M55.1593 76.8177C55.0707 76.8669 54.9231 77.054 54.8344 77.2213C54.5293 77.8022 54.8738 78.5406 55.5039 78.639C56.1734 78.7473 56.705 78.2944 56.705 77.6151C56.705 76.9555 55.7697 76.4633 55.1593 76.8177Z" fill="#0F3834"/>
<path d="M58.97 81.3267C58.3498 81.7008 58.2809 82.5868 58.8421 83.0495L59.1473 83.3055H64.2961H69.4549L69.8093 83.0003C70.1046 82.7345 70.1538 82.636 70.1538 82.2521C70.1538 81.7106 70.0357 81.4842 69.6616 81.2873C69.4155 81.1593 68.6377 81.1396 64.3257 81.1396C59.5607 81.1396 59.2555 81.1494 58.97 81.3267Z" fill="#0F3834"/>
<path d="M55.3273 81.6318C55.032 81.75 54.6973 82.2028 54.6973 82.4883C54.6973 82.8034 54.9532 83.2759 55.1797 83.4039C55.4652 83.5516 55.9968 83.5221 56.2528 83.3449C56.3709 83.2661 56.5383 83.0594 56.6269 82.9018C57.0108 82.1536 56.1346 81.307 55.3273 81.6318Z" fill="#0F3834"/>
<path d="M16.2036 54.3615C15.7704 54.7947 16.0756 55.6413 16.6761 55.6413C17.0699 55.6413 17.385 55.3164 17.385 54.903C17.385 54.263 16.6368 53.9283 16.2036 54.3615Z" fill="#0F3834"/>
<path d="M90.7782 54.4796C90.5025 54.6372 90.4336 54.7553 90.4336 55.1491C90.4336 55.6807 90.66 55.9367 91.1326 55.9367C91.4673 55.9367 91.5461 55.8875 91.7134 55.6118C91.9596 55.2278 91.9005 54.8931 91.5559 54.5781C91.2803 54.3418 91.0735 54.3123 90.7782 54.4796Z" fill="#0F3834"/>
<path d="M90.8279 58.1912C90.4538 58.5653 90.4341 58.9984 90.7787 59.3332C91.0938 59.658 91.3694 59.6384 91.7238 59.2938C92.0684 58.9492 92.0881 58.5948 91.7927 58.2601C91.4285 57.8663 91.1627 57.8466 90.8279 58.1912Z" fill="#0F3834"/>
<path d="M16.4992 58.201C16.2137 58.4865 16.2334 59.028 16.5484 59.3331C17.0308 59.8254 17.6806 59.5202 17.6806 58.8114C17.6806 58.1124 16.9619 57.7383 16.4992 58.201Z" fill="#0F3834"/>
<path d="M90.3451 62.2965C90.0891 62.6213 90.0694 63.2317 90.3156 63.4483C90.4042 63.5271 90.6011 63.6354 90.7487 63.6649C91.1327 63.7633 91.6151 63.2809 91.6151 62.8084C91.6151 62.1094 90.7586 61.7648 90.3451 62.2965Z" fill="#0F3834"/>
<path d="M16.8536 62.3555C16.4893 62.8773 16.8437 63.7141 17.4344 63.7141C17.5723 63.7141 17.7987 63.6058 17.9267 63.468C18.4386 62.9659 18.094 62.139 17.3852 62.139C17.0997 62.139 16.9619 62.198 16.8536 62.3555Z" fill="#0F3834"/>
<path d="M17.9362 65.8899C17.5523 66.1852 17.572 66.7759 17.9756 67.1795C18.2217 67.4158 18.33 67.465 18.5466 67.406C18.9798 67.2977 19.157 67.0712 19.157 66.6282C19.1472 66.1951 19.029 65.9785 18.6943 65.8013C18.3891 65.6339 18.2316 65.6536 17.9362 65.8899Z" fill="#0F3834"/>
<path d="M89.538 66.264C88.9867 66.8153 89.2525 67.6521 89.9712 67.6521C90.3847 67.6521 90.7194 67.3174 90.7981 66.835C90.8375 66.5495 90.808 66.4412 90.6012 66.2344C90.2567 65.8899 89.9023 65.9096 89.538 66.264Z" fill="#0F3834"/>
<path d="M19.2758 69.2568C19.0002 69.5522 19.0002 69.8967 19.2857 70.3201C19.5417 70.7139 19.9059 70.7926 20.28 70.5563C20.6049 70.3397 20.6738 70.0936 20.536 69.6703C20.3292 69.0402 19.6795 68.8236 19.2758 69.2568Z" fill="#0F3834"/>
<path d="M88.3571 69.5128C87.8058 70.0641 88.0519 70.9305 88.7608 70.9305C89.5484 70.9305 89.9028 69.5915 89.1841 69.3159C88.81 69.1781 88.6623 69.2076 88.3571 69.5128Z" fill="#0F3834"/>
</svg>
