<svg width="107" height="107" viewBox="0 0 107 107" fill="none" xmlns="http://www.w3.org/2000/svg">
<circle cx="53.5" cy="53.5" r="53.5" fill="#D5DAD7"/>
<path d="M62.835 29.8584C62.835 30.5795 62.6636 30.7168 61.8069 30.7168C60.4705 30.7168 60.4019 31.644 61.7041 31.8156C63.1091 31.9873 63.1091 32.9831 61.7384 34.1849C61.1216 34.7 60.5047 35.1464 60.3677 35.1807C60.2306 35.1807 59.3396 35.6614 58.3801 36.2108C56.1869 37.5156 49.6417 41.121 46.7975 42.5975C45.461 43.2843 44.3987 43.6277 43.919 43.4903L43.1993 43.3186L43.919 42.7005C44.6729 42.1168 44.9813 41.4644 44.3302 41.8765C44.1588 41.9795 43.9875 41.9108 43.9875 41.7391C43.9875 41.5331 43.3021 41.3614 42.4454 41.3614C41.3146 41.3614 40.9034 41.4987 40.9034 41.8765C40.9034 42.1512 41.2118 42.3915 41.5887 42.3915C42.3084 42.3915 42.2056 43.2843 41.4859 43.3186C41.246 43.353 40.5949 43.5246 40.0124 43.6963C39.4298 43.868 35.2491 44.0054 30.6572 43.971C26.0995 43.9367 22.193 44.0397 21.9873 44.177C21.6789 44.3487 21.7132 44.5548 22.0216 44.9325C22.2615 45.2415 22.3986 45.8596 22.33 46.3403C22.1587 47.1644 22.2272 47.1987 23.735 47.2331C24.5917 47.2331 25.9967 47.2331 26.8192 47.1987L28.2927 47.1301L27.5731 47.9198C26.5107 49.0873 26.3737 49.9114 26.6135 54.5469C26.8534 59.4228 26.9562 59.5601 30.0746 59.5601C33.1588 59.5601 33.1588 59.4915 33.2958 55.165C33.4329 51.1132 33.0217 48.9156 31.9594 47.8511C31.3083 47.1987 31.3083 47.1987 32.9189 47.1301C33.8441 47.0957 35.0778 47.0957 35.6946 47.1301C36.8597 47.1644 37.2024 46.6837 36.2086 46.409C35.8659 46.306 36.1744 46.2373 36.8597 46.2029C37.8535 46.1686 38.0934 46.2716 37.9563 46.6837C37.7507 47.2331 37.6136 47.2674 36.003 47.3704C34.3239 47.4734 33.9127 48.2288 33.8099 51.5596C33.7756 53.2421 33.8099 55.4397 33.9127 56.5041C34.1525 58.8391 34.7008 59.2168 37.9906 59.2168C39.8068 59.2168 40.2523 59.1138 40.5607 58.5644C41.0404 57.6373 41.0062 49.6023 40.5264 50.2891C40.2523 50.6668 40.218 50.5294 40.3551 49.671C40.4579 49.0186 40.3893 48.2288 40.218 47.8511C39.9096 47.3361 39.9781 47.1987 40.3893 47.1987C40.6978 47.1987 40.8348 47.3361 40.732 47.5421C40.3893 48.0915 41.109 47.9541 41.5887 47.3704C42.3426 46.4776 42.9594 46.7523 42.9594 48.0228C42.9594 48.6752 43.1308 49.3276 43.3021 49.4306C43.5077 49.5337 43.5763 50.1861 43.5077 50.8385C43.4049 51.5252 43.5077 52.0059 43.7133 52.0059C44.2959 52.0059 44.9813 50.8728 45.0155 49.9457C45.0155 49.465 45.1526 48.8813 45.2897 48.6409C45.5638 48.2288 46.7975 48.1945 77.6731 47.8511C79.7292 47.8168 80.8257 47.9541 81.0999 48.2288C81.3398 48.4692 81.3398 48.5722 81.1684 48.4692C80.5859 48.1602 79.4893 49.156 79.832 49.671C80.0376 49.9114 80.1404 50.6325 80.1061 51.2162C80.0718 51.8343 80.1746 52.3493 80.346 52.3493C80.5173 52.3493 80.6544 52.1776 80.6544 52.0059C80.6544 51.7999 80.9628 51.6626 81.374 51.6626C81.9909 51.6626 82.0594 51.7999 81.8881 52.933C81.7852 53.6541 81.6139 55.268 81.4768 56.5385C81.374 57.8089 81.1342 58.7704 80.9971 58.7017C80.3803 58.324 80.2432 59.3541 80.8257 59.7662C81.3398 60.1439 81.1684 60.2125 79.4207 60.3156C76.8849 60.4529 76.5765 61.1397 78.9753 61.3457C80.2774 61.483 80.9628 61.7577 81.374 62.2728C82.0937 63.1656 82.5391 63.1999 83.1217 62.3758C83.3616 62.0324 83.9784 61.7234 84.5267 61.689L85.4519 61.6204L85.4862 64.4704C85.5205 66.0155 85.5547 68.2818 85.5205 69.5179C85.5205 70.7541 85.589 71.2691 85.6575 70.7197C85.966 68.7282 86.1716 68.1101 86.48 68.3161C86.9597 68.5908 86.9255 68.3161 86.3086 66.874C85.6918 65.4318 85.6575 64.9168 86.1716 65.2601C86.4457 65.4318 86.48 65.1228 86.3086 64.1613C86.1716 63.4059 86.0688 61.7921 86.103 60.4872C86.1373 59.1481 86.0002 58.1866 85.7946 58.1866C85.6233 58.1866 85.4519 58.736 85.4519 59.4571C85.4519 60.6246 85.4177 60.6589 84.8351 60.1439C84.4924 59.8005 84.0469 59.5601 83.8413 59.5601C83.6357 59.5601 83.293 58.5987 83.0874 57.4312C82.8818 56.2638 82.5391 55.1993 82.3335 55.062C82.0594 54.8903 82.0594 54.7873 82.3335 54.7186C82.5391 54.6499 82.7448 53.7228 82.7448 52.5897C82.779 51.5252 82.9504 50.5294 83.0874 50.4264C83.2588 50.3234 83.3958 49.568 83.3958 48.7096C83.3958 47.3361 83.4644 47.1987 84.2526 47.1987C85.2806 47.1987 85.3491 47.5764 84.4239 48.4005C83.5672 49.1903 83.5329 49.7053 84.3896 49.4306C84.8351 49.2933 85.075 49.4306 85.2121 49.9457C85.3149 50.3234 85.5547 50.6325 85.7604 50.6325C86.2401 50.6325 86.2401 50.0487 85.7946 49.774C85.3149 49.465 85.3834 48.3319 85.8974 48.1258C86.2401 47.9885 86.2401 47.8855 85.8974 47.5078C85.4177 46.9927 85.2806 46.3746 85.7261 46.6493C86.2058 46.924 87.1996 45.4819 87.0968 44.6921C87.0283 44.074 86.6856 43.9024 85.4519 43.7307C84.5952 43.6277 84.2183 43.4903 84.5952 43.456C86.2058 43.3186 86.2744 42.3228 84.8008 39.7132C84.3896 38.9234 84.3554 38.9234 83.7043 39.5072C82.8818 40.2283 82.8818 40.915 83.67 41.121C83.9784 41.1897 83.9099 41.224 83.4987 41.1897C83.0874 41.1554 82.6762 41.2927 82.6077 41.4987C82.4021 42.0481 82.7448 43.0783 83.1217 43.0783C83.293 43.0783 83.1902 43.3186 82.8818 43.6277C82.2307 44.3144 82.1965 44.2801 77.1248 41.2927C75.2743 40.1939 73.698 39.3012 73.5952 39.3012C73.5266 39.3012 72.8413 38.8891 72.0874 38.4084C70.7166 37.4813 70.0655 37.1036 66.9814 35.4554C64.0344 33.8415 63.0063 32.2277 64.7883 32.0217C65.3708 31.953 65.782 31.6783 65.8506 31.3006C65.9534 30.8542 65.7478 30.7168 64.9253 30.7168C64.0344 30.7168 63.863 30.5795 63.863 29.8584C63.863 29.309 63.6574 29 63.349 29C63.0406 29 62.835 29.309 62.835 29.8584ZM67.8724 38.0307C68.6948 38.5457 69.483 38.9578 69.6543 38.9578C69.8257 38.9578 70.1683 39.2325 70.4082 39.5415C70.9222 40.1596 67.9752 38.6144 66.9129 37.7216C66.6387 37.4469 66.1247 37.2409 65.8506 37.2409C65.5422 37.2409 65.1309 37.0006 64.8911 36.7259C64.5141 36.2795 64.5826 36.2451 65.4393 36.6572C65.9876 36.8976 67.0842 37.5156 67.8724 38.0307ZM65.8506 37.962C66.673 38.5114 67.4269 38.9578 67.5297 38.9578C67.6668 38.9578 68.3179 39.3355 68.969 39.7819C70.5453 40.812 74.5204 43.1813 77.8787 45.0698C79.5921 46.0313 79.6949 46.1343 78.9067 46.306C78.4612 46.409 74.3148 46.5463 69.7229 46.6493C64.4798 46.7523 61.2244 46.9584 61.0188 47.1644C60.8131 47.3704 60.3334 47.5421 59.9564 47.5078C59.2368 47.5078 59.2368 47.5078 59.9222 47.1987C60.5047 46.9584 60.4705 46.8897 59.5795 46.8554C56.5982 46.7523 48.3738 46.8554 48.0997 47.027C47.8941 47.1644 47.757 47.0614 47.757 46.8897C47.757 46.6837 47.4486 46.512 47.0716 46.512C45.838 46.512 46.352 45.8596 48.4081 44.7951C49.5389 44.2457 50.5327 43.6277 50.6698 43.4216C50.7726 43.2499 51.1153 43.0783 51.3894 43.0783C52.0748 43.0783 54.6449 41.3271 54.4393 40.9837C54.3365 40.8463 54.4393 40.606 54.6449 40.4686C54.919 40.3313 54.9533 40.3656 54.8162 40.606C54.405 41.2927 55.3988 41.0524 56.701 40.1939C57.3521 39.7475 58.4486 39.1295 59.0997 38.8204C59.7508 38.5114 60.8817 37.8933 61.6356 37.4126C63.1776 36.4512 63.6917 36.5198 65.8506 37.962ZM57.3521 39.0951C57.3521 39.1638 57.1122 39.3355 56.8038 39.4385C56.5296 39.5415 56.3926 39.5072 56.4954 39.3012C56.701 38.9578 57.3521 38.8204 57.3521 39.0951ZM76.8849 43.4216C77.159 43.5933 78.1871 44.2114 79.1123 44.7951C80.0718 45.3445 80.6544 45.8252 80.4488 45.8252C80.2089 45.8252 79.2494 45.2758 78.2556 44.6234C77.2619 43.971 76.3366 43.4216 76.1653 43.4216C75.9939 43.4216 75.24 42.9752 74.4861 42.4258C73.7665 41.9108 72.6699 41.2584 72.0874 41.018C71.5391 40.7777 71.0593 40.4686 71.0593 40.2969C71.0593 40.0566 74.8974 42.1168 76.8849 43.4216ZM50.3956 43.2843C50.2928 43.3873 49.9844 43.4216 49.7445 43.3186C49.4704 43.2156 49.5732 43.1126 49.9501 43.1126C50.3271 43.0783 50.5327 43.1813 50.3956 43.2843ZM42.5482 46.0656C42.2056 46.1343 41.6573 46.1343 41.3488 46.0656C41.0062 45.9626 41.2803 45.8939 41.9314 45.8939C42.5825 45.8939 42.8566 45.9626 42.5482 46.0656ZM28.6696 46.409C27.6759 46.4776 26.031 46.4776 25.0715 46.409C24.0777 46.3403 24.8659 46.306 26.8534 46.306C28.841 46.306 29.6291 46.3403 28.6696 46.409ZM33.6385 46.409C33.0902 46.4776 32.2678 46.4776 31.7538 46.409C31.2055 46.3403 31.651 46.2716 32.679 46.2716C33.7071 46.2716 34.1525 46.3403 33.6385 46.409ZM43.9875 47.027C44.2274 47.3361 44.2616 47.5421 44.056 47.5421C43.8847 47.5421 43.6448 47.3017 43.5077 47.027C43.4049 46.7523 43.3707 46.512 43.4392 46.512C43.5077 46.512 43.7476 46.7523 43.9875 47.027ZM82.1965 47.1987C82.8133 47.4734 82.779 47.5078 81.9566 47.5078C81.4083 47.5421 80.9971 47.3704 80.9971 47.1987C80.9971 46.7867 81.2712 46.7867 82.1965 47.1987ZM31.1712 47.9541C31.8223 48.7439 31.8223 48.7439 31.1369 48.1945C30.76 47.8511 30.1432 47.5421 29.7662 47.4391C29.1151 47.3017 29.1151 47.2674 29.8005 47.2331C30.1774 47.2331 30.7943 47.5421 31.1712 47.9541ZM39.327 47.7481C40.1495 48.5722 39.9781 48.7782 39.1214 48.0228C38.6759 47.6794 38.2647 47.3361 38.1962 47.3017C38.1276 47.2331 38.2304 47.1987 38.4361 47.1987C38.6417 47.1987 39.0529 47.4391 39.327 47.7481ZM35.4205 48.4005C35.1806 48.6752 34.8722 49.4306 34.7351 50.0487C34.4952 51.0102 34.461 51.0445 34.4267 50.2891C34.3924 49.465 35.2148 47.8855 35.6603 47.8855C35.7631 47.8855 35.6603 48.1258 35.4205 48.4005ZM27.95 58.0836C28.1556 58.324 29.1494 58.5644 30.246 58.5987L32.165 58.6674L30.383 58.7704C27.3674 59.0107 27.1961 58.7704 27.2646 54.6499L27.3332 51.1475L27.436 54.3752C27.5045 56.1608 27.7444 57.8433 27.95 58.0836ZM34.6323 54.8216C34.5295 55.062 34.461 54.8903 34.461 54.4096C34.461 53.9288 34.5295 53.7571 34.6323 53.9632C34.7008 54.2035 34.7008 54.6156 34.6323 54.8216ZM37.922 58.2553L40.0467 58.324L38.1619 58.427C36.1744 58.5644 34.7351 58.0493 34.7351 57.1909C34.7351 56.8132 34.8722 56.8818 35.2834 57.4312C35.7289 58.0493 36.1744 58.1866 37.922 58.2553ZM82.2307 59.8005C82.0937 60.1095 82.1622 60.4872 82.4021 60.5903C82.6077 60.7619 82.6762 61.174 82.5391 61.586C82.265 62.5131 81.6824 62.2041 81.6824 61.1053C81.6824 60.2469 81.9909 59.2168 82.265 59.2168C82.3678 59.2168 82.3335 59.4915 82.2307 59.8005Z" fill="#0F3834"/>
<path d="M59.4082 30.3735C59.4082 30.5451 59.5795 30.7168 59.7509 30.7168C59.9565 30.7168 60.0936 30.5451 60.0936 30.3735C60.0936 30.1674 59.9565 30.0301 59.7509 30.0301C59.5795 30.0301 59.4082 30.1674 59.4082 30.3735Z" fill="#0F3834"/>
<path d="M61.979 32.7771C62.0818 32.9488 62.2531 33.1205 62.3559 33.1205C62.4245 33.1205 62.493 32.9488 62.493 32.7771C62.493 32.5711 62.3216 32.4337 62.116 32.4337C61.9447 32.4337 61.8762 32.5711 61.979 32.7771Z" fill="#0F3834"/>
<path d="M41.6572 39.4385C41.0747 40.7433 41.109 40.8464 42.2741 40.915C43.5077 41.018 43.8847 40.5373 43.028 39.9192C42.6853 39.6789 42.3083 39.2668 42.2398 38.9921C42.137 38.7174 41.9314 38.8548 41.6572 39.4385Z" fill="#0F3834"/>
<path d="M38.333 42.0482C38.47 42.2542 38.7099 42.3229 38.8813 42.2199C39.361 41.9108 39.2582 41.7048 38.6414 41.7048C38.3672 41.7048 38.2302 41.8765 38.333 42.0482Z" fill="#0F3834"/>
<path d="M51.1843 50.3577C50.4304 51.1818 50.2934 51.6626 50.8416 51.6626C51.0472 51.6626 51.1843 53.0361 51.1843 55.0963C51.1843 58.118 51.0815 58.633 50.4304 59.3884C50.0192 59.8692 49.4024 60.2469 49.094 60.2469C48.7513 60.2469 48.4086 60.3842 48.3058 60.5559C48.203 60.7276 47.7918 60.7963 47.3806 60.6933C46.8323 60.5559 46.798 60.4186 47.1407 60.2125C47.4834 59.9722 47.4491 59.9035 47.0036 59.9035C46.6609 59.9035 46.3868 60.0752 46.3868 60.2812C46.3868 60.7276 44.7076 60.3842 44.1594 59.8692C43.9195 59.6288 43.9195 59.5258 44.1594 59.5601C44.8447 59.6975 45.3587 59.5601 45.3587 59.2168C45.3587 59.0107 44.9818 58.8734 44.5363 58.8734C43.988 58.8734 43.6453 59.1137 43.5425 59.5945C43.3712 60.2469 43.1656 60.3155 42.1375 60.1095C41.2808 59.9378 40.9039 60.0065 40.9039 60.2812C40.9039 60.5559 40.7668 60.5559 40.3899 60.2469C40.0472 59.9378 39.8758 59.9378 39.8758 60.2125C39.8758 60.4186 39.5332 60.5902 39.1219 60.5902C38.4708 60.5902 38.4366 60.5216 38.8478 60.2469C39.2933 59.9722 39.259 59.9035 38.7793 59.9035C38.4366 59.9035 38.1624 60.0409 38.1624 60.2125C38.1624 60.6246 35.1468 60.6246 34.8727 60.2125C34.7699 60.0065 34.2559 59.9378 33.7761 60.0409C32.6795 60.2812 32.0627 60.2812 26.9567 60.2812C24.6265 60.2469 23.0844 60.1095 23.0844 59.9035C23.0844 59.6975 22.8103 59.5601 22.5019 59.5601C22.0564 59.5601 22.0221 59.6631 22.3305 59.9722C22.8446 60.4872 22.8788 61.0366 22.3648 60.7276C22.0907 60.5559 22.0221 60.7619 22.1249 61.38C22.2277 61.8951 22.1249 62.3414 21.9193 62.4445C21.7137 62.5131 21.8851 62.6161 22.3305 62.6161C22.7418 62.6505 23.0844 62.4445 23.0844 62.2041C23.0844 61.6547 23.9754 61.5517 28.0533 61.6547C29.0128 61.689 30.4864 61.6204 31.3773 61.483C32.4054 61.3457 33.0565 61.4143 33.1935 61.6547C33.3649 61.8951 34.0845 61.9637 35.2154 61.8264C38.0596 61.5174 40.7325 61.483 41.1438 61.7234C41.3494 61.8607 43.474 61.9294 45.8385 61.8951C49.1968 61.8264 50.1563 61.7234 50.1563 61.3457C50.1563 61.071 50.3276 61.0023 50.6018 61.174C51.1501 61.5517 52.3494 61.6547 56.4959 61.7234C60.5053 61.7921 61.6704 61.5517 61.9102 60.5902C62.0473 60.0752 61.9102 59.9035 61.362 59.9035C59.8542 59.9035 59.7514 59.5945 59.8542 55.062C59.8884 51.7999 59.8199 50.5981 59.4429 50.1861C59.066 49.7053 58.3121 49.6023 55.4336 49.6023C52.2466 49.6023 51.8354 49.671 51.1843 50.3577ZM56.5987 50.1861C56.0847 50.2547 55.1594 50.2547 54.5426 50.1861C53.9258 50.1174 54.337 50.0487 55.4678 50.0487C56.5987 50.0487 57.1127 50.1174 56.5987 50.1861ZM53.1376 50.4951C53.0348 50.5981 52.7264 50.6324 52.4865 50.5294C52.2124 50.4264 52.3152 50.3234 52.6921 50.3234C53.0691 50.2891 53.2747 50.3921 53.1376 50.4951ZM59.066 51.0102C59.066 51.2162 58.9289 51.2505 58.7233 51.1475C58.552 51.0445 58.3806 50.7698 58.3806 50.5981C58.3806 50.3921 58.552 50.3577 58.7233 50.4608C58.9289 50.5638 59.066 50.8385 59.066 51.0102ZM52.8292 59.1824C53.1033 59.3541 54.4741 59.3884 55.9133 59.3198C58.3121 59.1824 58.5862 59.2168 58.9632 59.8692C59.3744 60.5216 59.3401 60.5559 58.4149 60.3842C57.8666 60.2469 57.3183 60.3499 57.2155 60.5559C56.9414 61.0023 54.0628 61.0366 53.0691 60.5902C52.6236 60.3842 52.555 60.2812 52.8977 60.2812C53.2404 60.2469 53.1719 60.1095 52.6579 59.7318C52.0068 59.2854 51.9382 58.9077 51.9725 55.371V51.4909L52.1781 55.1993C52.3152 57.7403 52.5208 58.9764 52.8292 59.1824ZM59.3059 53.9632C59.2031 54.3065 59.1345 54.0318 59.1345 53.3794C59.1345 52.727 59.2031 52.4523 59.3059 52.7614C59.3744 53.1047 59.3744 53.6541 59.3059 53.9632Z" fill="#0F3834"/>
<path d="M55.9137 59.8005C56.1536 59.9035 56.462 59.8692 56.5648 59.7662C56.7018 59.6632 56.4962 59.5601 56.1193 59.5945C55.7423 59.5945 55.6395 59.6975 55.9137 59.8005Z" fill="#0F3834"/>
<path d="M65.9537 50.083C65.6795 50.4264 65.5425 52.0746 65.5425 54.9589C65.5767 59.7318 65.3711 60.2125 63.4864 60.2469C62.5611 60.2469 61.91 61.071 62.4926 61.4487C62.9381 61.7234 66.9474 61.8951 66.9474 61.6204C66.9474 61.3457 68.8322 61.483 69.3119 61.792C69.5176 61.8951 69.6889 61.8264 69.6889 61.586C69.6889 61.277 69.7917 61.277 70.1686 61.586C71.0254 62.3071 75.1718 61.6204 75.1718 60.7619C75.1718 60.5216 75.2746 60.0752 75.3774 59.7661C75.5145 59.3884 75.4117 59.2167 75.0347 59.2167C74.555 59.2167 74.4864 58.633 74.4864 54.8216C74.4864 51.8686 74.3494 50.2891 74.0752 50.0144C73.4584 49.3963 66.4677 49.465 65.9537 50.083ZM73.2185 50.1861C73.3213 50.3577 72.2247 50.4264 70.8197 50.3577C66.5705 50.1517 66.6048 50.1174 66.5362 53.6541L66.4677 56.6415L66.3649 53.7228C66.2621 51.2848 66.3306 50.7354 66.8104 50.3921C67.4615 49.9114 72.9444 49.7397 73.2185 50.1861ZM66.502 58.2553C66.3992 58.4957 66.3306 58.324 66.3306 57.8433C66.3306 57.3625 66.3992 57.1909 66.502 57.3969C66.5705 57.6372 66.5705 58.0493 66.502 58.2553ZM69.4833 59.2854C70.6484 59.2854 71.2995 59.3541 70.9911 59.4228C70.6484 59.5258 70.3743 59.7661 70.3743 59.9722C70.3743 60.1782 69.9288 60.2469 69.2091 60.1095C68.5238 59.9722 67.9412 60.0408 67.8041 60.2469C67.7013 60.4186 67.0845 60.5902 66.502 60.5902C65.5082 60.5559 65.4739 60.5216 66.0222 60.1095C66.3306 59.8692 66.6048 59.4571 66.6048 59.2511C66.6048 59.0107 66.7761 58.9421 67.016 59.0794C67.2216 59.2167 68.3524 59.3198 69.4833 59.2854ZM74.4864 60.1095C74.4864 60.1782 74.178 60.2469 73.8011 60.2469C73.4241 60.2469 73.1157 60.1095 73.1157 59.9378C73.1157 59.7661 73.4241 59.6975 73.8011 59.8005C74.178 59.9035 74.4864 60.0408 74.4864 60.1095ZM72.4303 60.2469C72.4303 60.4186 72.259 60.5902 72.0534 60.5902C71.8821 60.5902 71.8135 60.4186 71.9163 60.2469C72.0191 60.0408 72.1905 59.9035 72.2933 59.9035C72.3618 59.9035 72.4303 60.0408 72.4303 60.2469Z" fill="#0F3834"/>
<path d="M85.6582 51.5939C85.3841 52.0746 85.6582 53.8602 86.0694 53.9975C86.3093 54.0662 86.3778 53.6885 86.2408 52.7957C86.0009 51.3192 85.9323 51.1475 85.6582 51.5939Z" fill="#0F3834"/>
<path d="M20 54.0662C20 54.2379 20.1713 54.4095 20.3769 54.4095C20.5483 54.4095 20.6168 54.2379 20.514 54.0662C20.4112 53.8601 20.2399 53.7228 20.1371 53.7228C20.0685 53.7228 20 53.8601 20 54.0662Z" fill="#0F3834"/>
<path d="M22.0566 54.8216C22.0566 55.8517 22.0909 55.8517 22.5364 55.268C23.0161 54.6156 22.9133 53.7228 22.3651 53.7228C22.1937 53.7228 22.0566 54.2036 22.0566 54.8216Z" fill="#0F3834"/>
<path d="M80.2085 57.4999C80.1057 57.9463 80.2085 58.1867 80.5169 58.1867C80.791 58.1867 80.9966 57.8776 80.9966 57.4999C80.9966 57.1222 80.8596 56.8132 80.6882 56.8132C80.5169 56.8132 80.3113 57.1222 80.2085 57.4999Z" fill="#0F3834"/>
<path d="M75.7542 60.4873C75.3087 60.8993 75.5143 61.277 76.1654 61.277C76.5081 61.277 76.885 61.0366 77.0221 60.7619C77.1934 60.2469 76.1997 60.0065 75.7542 60.4873Z" fill="#0F3834"/>
<path d="M22.0218 63.2342C22.0218 63.3716 21.9532 64.6421 21.8504 65.9812C21.7133 68.0414 21.7476 68.4878 22.1931 68.4878C22.8442 68.4878 23.0155 67.7667 22.947 65.2601C22.9127 63.9553 22.7414 63.1655 22.5015 63.0969C22.2616 62.9939 22.056 63.0625 22.0218 63.2342Z" fill="#0F3834"/>
<path d="M58.9629 63.9553C57.2837 64.7794 56.5984 65.6035 57.2837 66.0499C57.5236 66.1872 57.695 68.2818 57.7292 71.8529L57.832 77.4155H62.9037H67.9754V74.3252C67.9754 72.5053 67.8383 71.2348 67.6327 71.2348C67.4614 71.2348 67.29 70.7541 67.29 70.2047C67.29 69.621 67.4614 69.1746 67.6327 69.1746C67.8383 69.1746 67.9754 68.8656 67.9754 68.4535C67.9754 68.0758 67.8383 67.8698 67.6327 67.9728C67.4271 68.1101 67.29 67.8011 67.29 67.3204C67.29 66.8397 67.4614 66.4276 67.667 66.4276C67.8726 66.4276 67.9754 66.0842 67.9069 65.6722C67.8383 65.1571 67.2558 64.6077 66.262 64.024C64.1716 62.8909 61.2931 62.8565 58.9629 63.9553ZM65.0626 64.23C63.4863 64.4704 59.1342 64.5391 59.5112 64.2987C59.751 64.1613 61.2246 64.0583 62.8352 64.0927C64.4458 64.0927 65.4396 64.1613 65.0626 64.23ZM66.776 65.0541C67.1187 65.4318 67.3243 65.7409 67.2215 65.7409C67.1187 65.7409 66.776 65.4318 66.4333 65.0541C66.0906 64.6764 65.885 64.3674 65.9878 64.3674C66.0906 64.3674 66.4333 64.6764 66.776 65.0541Z" fill="#0F3834"/>
<path d="M81.5797 63.7836C81.3399 64.4017 81.6825 66.0842 82.0595 66.0842C82.4022 66.0842 83.019 63.9897 82.8134 63.5776C82.5735 63.1656 81.7853 63.3029 81.5797 63.7836Z" fill="#0F3834"/>
<path d="M30.3839 66.2903C29.9727 66.3933 29.2188 67.0457 28.6705 67.7324C27.8481 68.8312 27.711 69.3119 27.711 71.3035C27.711 73.2607 27.6082 73.6384 27.1285 73.6384C26.82 73.6384 26.4431 73.7758 26.3403 73.9818C25.9976 74.5312 23.0848 74.3938 22.8792 73.8445C22.7764 73.5698 22.6736 72.368 22.6393 71.2005C22.5365 67.9384 21.8169 68.2475 21.7826 71.5439L21.7141 74.2908L23.0848 74.7029C24.0443 75.0119 25.0381 75.0119 26.4431 74.8059L28.3964 74.4969L28.2936 72.5053C28.1222 69.0716 29.3216 66.9427 31.6861 66.565C32.6114 66.3933 33.1254 66.565 34.1192 67.3547C34.8045 67.8698 35.4899 68.5222 35.5927 68.7969C35.6955 69.0372 35.1472 68.6939 34.3933 68.0071C32.8855 66.668 32.1316 66.4963 30.6581 67.286C29.0475 68.1101 28.5334 69.6896 28.7733 73.089C28.9447 75.2179 28.9104 76.042 28.602 76.042C28.3964 76.042 28.225 75.939 28.225 75.7673C28.225 75.63 27.0942 75.5957 25.6892 75.6987C23.5303 75.836 23.0848 75.7673 22.7764 75.2523C22.1938 74.3595 21.063 74.5312 20.686 75.5613C20.1035 77.0722 20.2406 77.4155 21.5427 77.4155C22.1938 77.4155 22.7421 77.2438 22.7421 77.0722C22.7421 76.8661 22.4337 76.7288 22.0568 76.7288C21.6798 76.7288 21.3714 76.6258 21.3714 76.4541C21.3714 76.3167 23.0505 76.2481 25.1066 76.3167C28.225 76.4197 28.8419 76.5228 28.6705 76.9348C28.5334 77.3469 29.1845 77.4155 32.6456 77.4155H36.7921L36.5865 75.939C36.4494 75.1493 36.2095 74.4282 36.0382 74.3938C35.9011 74.3252 35.764 74.0161 35.7983 73.7071C35.7983 73.3294 35.8668 73.2951 36.0039 73.5354C36.3466 74.4625 36.7921 73.9131 36.7921 72.5053C36.7921 68.8656 35.1815 66.4276 32.6799 66.2559C31.8232 66.1872 30.7951 66.2216 30.3839 66.2903ZM22.2281 75.3553C22.3309 75.527 22.2624 75.6987 22.091 75.6987C21.8854 75.6987 21.7141 75.527 21.7141 75.3553C21.7141 75.1493 21.7826 75.0119 21.8512 75.0119C21.954 75.0119 22.1253 75.1493 22.2281 75.3553Z" fill="#0F3834"/>
<path d="M81.7859 67.3547C81.0663 67.5951 81.2034 71.8872 81.8887 72.1619C82.6769 72.4709 83.0538 71.6469 83.0538 69.4836C83.0538 67.5607 82.7454 67.0113 81.7859 67.3547Z" fill="#0F3834"/>
<path d="M56.7008 72.78C56.6665 75.7673 56.7693 77.4155 57.0092 77.4155C57.2148 77.4155 57.3519 75.733 57.3519 72.78C57.3519 70.239 57.2148 68.1445 57.0434 68.1445C56.8721 68.1445 56.7008 70.239 56.7008 72.78Z" fill="#0F3834"/>
<path d="M86.343 69.621C86.1717 70.136 86.1374 70.9945 86.2059 71.5782C86.2745 72.1276 86.2402 72.5053 86.0688 72.4023C85.9318 72.2993 85.7947 72.6083 85.7947 73.089C85.7947 73.8445 85.6576 73.9818 84.7324 73.9818C84.047 73.9818 83.4645 73.7071 83.0875 73.2264C82.128 72.0589 81.3056 72.6083 81.3741 74.3938C81.4769 77.1752 81.614 77.4155 83.0875 77.4155C84.0813 77.4155 84.424 77.2782 84.424 76.8661C84.424 76.5914 84.5611 76.4541 84.7667 76.5571C84.938 76.6601 85.3835 76.5914 85.6919 76.4197C86.2402 76.1107 86.2402 76.0764 85.5548 76.042C85.1093 76.042 84.7667 75.9047 84.7667 75.6987C84.7667 75.527 84.5268 75.4583 84.2526 75.5613C83.9785 75.6987 83.3617 75.6643 82.8819 75.5613C82.2651 75.3896 82.0252 75.1149 82.0252 74.4625C82.0252 73.6728 82.0595 73.6384 82.5735 74.1192C82.8819 74.4282 83.6701 74.6685 84.4582 74.6685C85.5206 74.6685 85.8632 74.4969 86.0688 73.9475C86.3087 73.2951 86.3773 73.2951 86.7885 73.7758C87.0626 74.0848 87.371 74.3252 87.5424 74.3252C87.9879 74.3252 87.9193 73.0204 87.4396 72.1619C87.1997 71.7499 86.9256 70.7884 86.8227 70.033C86.6171 68.6939 86.5829 68.6939 86.343 69.621ZM82.7106 76.042C82.7106 76.2137 82.642 76.3854 82.5735 76.3854C82.4707 76.3854 82.2994 76.2137 82.1966 76.042C82.0937 75.836 82.1623 75.6987 82.3336 75.6987C82.5392 75.6987 82.7106 75.836 82.7106 76.042Z" fill="#0F3834"/>
<path d="M87.0283 75.1836C87.1654 75.4583 87.0626 75.6987 86.8569 75.6987C86.6513 75.6987 86.48 75.527 86.48 75.3553C86.48 75.1493 86.2401 75.0119 85.966 75.0119C85.2121 75.0119 85.3491 75.5957 86.1716 75.8017C86.7541 75.9734 86.8227 76.1107 86.48 76.6944C86.1716 77.3125 86.2059 77.4155 86.9255 77.4155C87.6108 77.4155 87.7137 77.2438 87.6794 76.042C87.6794 75.2179 87.508 74.6685 87.2682 74.6685C87.0283 74.6685 86.9255 74.9089 87.0283 75.1836Z" fill="#0F3834"/>
<path d="M23.255 77.0722C23.1179 77.2782 24.0089 77.4155 25.6195 77.4155C27.1273 77.4155 28.2239 77.2782 28.2239 77.0722C28.2239 76.8661 27.1958 76.7288 25.8594 76.7288C24.5229 76.7288 23.3578 76.8661 23.255 77.0722Z" fill="#0F3834"/>
<path d="M85.0406 77.3125C85.2805 77.4155 85.5889 77.3812 85.6917 77.2782C85.8288 77.1752 85.6232 77.0722 85.2462 77.1065C84.8693 77.1065 84.7665 77.2095 85.0406 77.3125Z" fill="#0F3834"/>
</svg>
