<svg width="107" height="107" viewBox="0 0 107 107" fill="none" xmlns="http://www.w3.org/2000/svg">
<circle cx="53.5" cy="53.5" r="53.5" fill="#D5DAD7"/>
<path d="M36.7963 79C35.7713 79 34.8823 78.6244 34.1294 77.8731C33.3765 77.1219 33 76.2349 33 75.2122V41.8788C33 40.856 33.3765 39.969 34.1294 39.2178C34.8823 38.4665 35.7713 38.0909 36.7963 38.0909H44.4269L53.5569 29L62.687 38.0909H70.2037C71.2287 38.0909 72.1177 38.4665 72.8706 39.2178C73.6235 39.969 74 40.856 74 41.8788V75.2122C74 76.2349 73.6235 77.1219 72.8706 77.8731C72.1177 78.6244 71.2287 79 70.2037 79H36.7963ZM36.7963 75.2122H70.2037V41.8788H36.7963V75.2122ZM39.6435 69.947H67.4324L58.9667 58.6212L51.6778 68.2424L46.4389 61.0833L39.6435 69.947ZM48.5648 38.0909H58.5111L53.538 33.1288L48.5648 38.0909Z" fill="#0F3834"/>
</svg>
