<svg width="107" height="107" viewBox="0 0 107 107" fill="none" xmlns="http://www.w3.org/2000/svg">
<circle cx="53.5" cy="53.5" r="53.5" fill="#D5DAD7"/>
<g filter="url(#filter0_d_549_1765)">
<path fill-rule="evenodd" clip-rule="evenodd" d="M74.1053 66.8476H72.7392C72.7802 66.4699 73.1326 65.5229 73.2665 65.1096C73.4577 64.5211 73.6517 63.9436 73.8321 63.3579C74.0069 62.7804 74.1954 62.1591 74.3922 61.6035C74.5151 61.2477 74.8457 59.9585 75.0178 59.9202H76.6763C76.8675 59.9202 76.8457 60.0297 76.903 60.2377C76.9413 60.38 76.9905 60.5224 77.0342 60.6592C77.302 61.5159 78.914 66.5301 78.944 66.8476H77.2391L76.8047 65.4189L74.6599 65.4134C74.4741 65.4134 74.4003 65.9115 74.3457 66.0949C74.2829 66.3221 74.1927 66.6423 74.1053 66.8476ZM61.2749 66.8476H59.8924C59.9415 66.4918 60.8131 63.9409 60.9962 63.3442L61.8404 60.7112C62.1546 59.7231 61.7093 59.9175 63.8513 59.9175C64.0508 59.9175 64.4005 61.3188 64.4715 61.5515L65.5753 65.0822C65.6956 65.4736 66.0726 66.4945 66.1081 66.8448H64.4087C63.7202 65.0959 64.7502 65.4107 61.8431 65.4107C61.6382 65.4107 61.6574 65.5831 61.5126 66.0785C61.4388 66.333 61.3677 66.6067 61.2749 66.8476ZM40.5402 59.9312L42.2669 59.9202C42.3625 60.8891 42.2778 62.3151 42.2778 63.336C42.2778 64.5047 42.062 65.6324 43.4336 65.6378C44.8926 65.6433 44.6658 64.647 44.6658 63.3853C44.6658 62.2823 44.6084 61.026 44.6713 59.9421L46.0374 59.923L46.0292 64.7702C45.9089 66.4234 44.8488 66.9516 43.286 66.9516C40.0948 66.9516 40.5347 64.6416 40.5347 62.3808C40.532 61.6172 40.4828 60.6674 40.5402 59.9312ZM54.0892 66.8476C55.376 66.8476 57.2394 67.0228 58.2093 66.3932C60.3268 65.0193 60.1765 61.5268 58.2011 60.3308C57.253 59.7587 55.3542 59.9202 54.0728 59.9202L54.0892 66.8476ZM82.4057 66.9489C80.3921 66.9489 79.4057 65.3559 79.3894 63.3853C79.3566 59.3974 83.2254 59.0362 84.5068 60.8234C86.0477 62.972 85.3292 66.9489 82.4057 66.9489ZM48.6029 62.7804C48.6029 63.9436 48.6384 65.7528 48.5974 66.8394L47.3625 66.8503L47.3597 59.9202H49.0783L51.4171 63.96C51.4171 62.8899 51.3761 60.7796 51.4307 59.9202L52.6575 59.9257L52.6629 66.8284L51.2968 66.8476L48.5947 62.1837C48.5428 62.3343 48.6029 62.5696 48.6029 62.7804ZM36.5074 62.8269L39.0566 62.8433L39.0702 64.127H36.5074V66.8476H34.8517L34.8381 59.9202H39.7451L39.7533 61.2641L36.5184 61.2805L36.5074 62.8269ZM70.8922 64.3295C70.7665 65.1862 70.2173 65.9061 69.2174 65.5667C68.4441 65.3039 68.3376 64.3295 68.3403 63.3853C68.3431 62.4875 68.4961 61.4694 69.2092 61.1984C70.201 60.8234 70.7529 61.6226 70.7638 62.5587C71.0671 62.6408 72.0671 62.5067 72.4523 62.493C72.3239 61.1272 71.66 60.1556 70.4551 59.8928C67.4005 59.2305 66.0043 62.181 66.7338 64.7319C67.2748 66.6204 68.6791 66.7189 69.0562 66.927L68.8157 67.8028C69.0971 67.7727 69.3704 67.7344 69.5917 67.863C69.7556 67.9588 69.8704 68.1805 69.7146 68.3995C69.4387 68.7936 68.8239 68.4433 68.4742 68.3557L68.3239 68.7799C68.9988 69.0509 69.9332 69.3793 70.5042 68.7361C70.9277 68.2626 70.7201 67.2417 69.4715 67.3731L69.5917 66.9571C70.4113 66.8941 71.1436 66.6779 71.6026 66.2591C71.925 65.9663 72.5097 65.0302 72.4304 64.4171L70.8922 64.3295ZM74.1627 58.549C74.985 57.4788 76.0506 58.3656 76.4714 58.3437C76.8129 58.3273 76.9003 58.1165 77.1271 57.9687C77.2528 58.0481 77.4713 58.3546 77.5287 58.497C77.2883 58.8583 76.7692 59.2797 76.0533 59.0663C75.2364 58.8254 75.3348 58.549 74.5616 59.0772C74.4441 58.9732 74.2146 58.6667 74.1627 58.549ZM32.9364 42.2282H35.7533L35.7561 54.167L35.737 54.3559L32.9364 54.3477V42.2282ZM78.6243 42.2282L81.9084 42.2309L85.6734 54.3559H82.6625L81.9003 51.8488H77.9823L77.2145 54.3531L74.7528 54.3477L78.6243 42.2282ZM38.2178 42.2282L41.2669 42.2336C41.8598 43.3668 44.8516 48.5151 45.3789 49.3554C45.2669 47.2752 45.3352 44.3904 45.3352 42.2282H47.5209C47.5209 43.7691 47.5729 53.6853 47.5046 54.3559H45.1057L40.3516 46.2051C40.4363 47.5626 40.4609 53.3049 40.3981 54.3531H38.2178L38.2069 54.1643L38.2178 42.2282ZM60.3186 42.2282C61.182 42.2282 64.1027 42.1899 64.7447 42.2419C65.0617 43.4325 65.4305 44.6395 65.7912 45.8273C65.9742 46.4295 66.6873 49.0926 66.8677 49.4128C66.9032 49.3636 66.8649 49.4457 66.9305 49.3006C66.977 49.2048 66.9305 49.3143 66.9742 49.1857L67.1846 48.4905C67.2802 48.1812 67.3622 47.9129 67.4551 47.6037C67.8321 46.3501 68.8622 43.2409 69.1053 42.2282H73.5315L73.5124 54.3559H70.69L70.6654 44.4999L67.619 54.3559C67.201 54.3559 65.9879 54.4352 65.6846 54.3203L62.6929 44.5026L62.6819 54.3559H60.3377L60.3268 54.167L60.3186 42.2282ZM49.9581 42.2282C51.3952 42.2282 57.6902 42.168 58.6082 42.2419V44.5218H52.8405L52.8378 47.0289H57.376L57.3815 49.3088H52.8405L52.8378 51.9665C54.1056 51.9665 57.5809 51.9117 58.6 51.9747L58.5973 54.3586H49.9717L49.9608 54.1698V42.2282H49.9581ZM20.9448 48.2742C20.9448 44.8201 22.8929 42.0393 26.289 42.0393C29.3682 42.0393 31.0266 43.7472 31.2862 46.7333L28.3272 46.9112C28.3272 46.101 28.136 45.3703 27.7097 44.8858C27.3081 44.4287 26.4666 44.1906 25.6879 44.4424C24.412 44.8557 24.0923 46.591 24.0923 48.1702C24.0923 49.1501 24.1114 50.2066 24.5021 51.0715C25.1852 52.585 28.0841 53.0175 28.5513 49.9356L31.2753 50.0971C31.2971 50.6281 30.9966 51.534 30.7807 51.9582C30.4857 52.533 30.2015 52.9627 29.7999 53.2966C26.5349 55.9953 20.9448 54.4325 20.9448 48.2742ZM18.3438 57.1887H29.2562C29.4365 57.1887 30.6059 58.5134 30.9283 58.8391C31.1742 59.0827 32.5266 60.4594 32.5266 60.5634V71.6456H88.7417V40.9692C88.7417 40.8159 88.3865 40.5367 88.2772 40.4272C88.1051 40.2548 87.9084 40.0851 87.7581 39.8908C87.3947 39.4173 86.8838 38.9985 86.4658 38.5633L85.6871 37.7313C85.5395 37.5835 84.7335 36.6857 84.6188 36.6857H18.3438V57.1887Z" fill="#080607"/>
<path fill-rule="evenodd" clip-rule="evenodd" d="M60.3305 54.1673L60.3414 54.3561H62.6856L62.6965 44.5029L65.6883 54.3206C65.9889 54.4355 67.2047 54.3561 67.6227 54.3561L70.6691 44.5002L70.6937 54.3561H73.5161L73.5352 42.2284H69.109C68.8659 43.2411 67.8358 46.3504 67.4588 47.6039C67.3659 47.9132 67.2839 48.1814 67.1883 48.4907L66.9779 49.1859C66.9342 49.3146 66.9779 49.2051 66.9342 49.3009C66.8686 49.4432 66.9069 49.3611 66.8714 49.4131C66.691 49.0929 65.9779 46.4298 65.7949 45.8276C65.4342 44.6397 65.0654 43.4327 64.7484 42.2421C64.1064 42.1901 61.1884 42.2284 60.3223 42.2284L60.3305 54.1673Z" fill="#D5DAD7"/>
<path fill-rule="evenodd" clip-rule="evenodd" d="M38.2061 54.1678L38.217 54.3566H40.3973C40.4601 53.3084 40.4355 47.5661 40.3508 46.2086L45.1049 54.3594H47.5037C47.572 53.6888 47.5201 43.7726 47.5201 42.2317H45.3344C45.3344 44.3939 45.2688 47.2787 45.3781 49.3589C44.8508 48.5213 41.859 43.3703 41.2661 42.2372L38.217 42.2317L38.2061 54.1678Z" fill="#D5DAD7"/>
<path fill-rule="evenodd" clip-rule="evenodd" d="M49.959 54.1675L49.9699 54.3563H58.5982L58.6009 51.9724C57.5818 51.9095 54.1037 51.9615 52.8387 51.9642L52.8415 49.3066H57.3824L57.3769 47.0266H52.8387L52.8415 44.5195H58.6091V42.2396C57.6911 42.1657 51.3989 42.2259 49.959 42.2259V54.1675V54.1675Z" fill="#D5DAD7"/>
<path fill-rule="evenodd" clip-rule="evenodd" d="M79.9789 45.3711L81.2466 49.6327H78.6647L79.9789 45.3711ZM74.7549 54.3485L77.2193 54.354L77.9871 51.8496H81.9051L82.6673 54.3567H85.6782L81.9133 42.2318L78.6291 42.229L74.7549 54.3485Z" fill="#D5DAD7"/>
<path fill-rule="evenodd" clip-rule="evenodd" d="M20.9473 48.2739C20.9473 54.4322 26.5346 55.9978 29.7969 53.2964C30.1985 52.9624 30.4799 52.5355 30.7777 51.958C30.9963 51.5365 31.2941 50.6278 31.2723 50.0968L28.5483 49.9353C28.081 53.0172 25.1794 52.5847 24.4991 51.0712C24.1084 50.2063 24.0893 49.1498 24.0893 48.1699C24.0893 46.5907 24.4117 44.8582 25.6849 44.4421C26.4636 44.1903 27.3051 44.4284 27.7067 44.8855C28.133 45.37 28.3242 46.1008 28.3242 46.9109L31.2832 46.733C31.0264 43.7442 29.3679 42.039 26.286 42.039C22.8953 42.039 20.9473 44.8198 20.9473 48.2739Z" fill="#D5DAD7"/>
<path fill-rule="evenodd" clip-rule="evenodd" d="M32.9365 54.3458L35.737 54.3567L35.7589 54.1679L35.7562 42.229H32.9365V54.3458Z" fill="#D5DAD7"/>
<path fill-rule="evenodd" clip-rule="evenodd" d="M48.6045 62.7815C48.6045 62.5707 48.5471 62.3353 48.5963 62.1876L51.2984 66.8514L52.6645 66.8323L52.6591 59.9295L51.4323 59.924C51.3777 60.7835 51.4214 62.8937 51.4187 63.9639L49.0799 59.924H47.3613L47.3641 66.8542L48.599 66.8432C48.64 65.7539 48.6045 63.9447 48.6045 62.7815Z" fill="#D5DAD7"/>
<path fill-rule="evenodd" clip-rule="evenodd" d="M54.0906 66.8475C55.3775 66.8475 57.2408 67.0227 58.2108 66.3932C60.3282 65.0192 60.178 61.5268 58.2026 60.3307C57.2545 59.7587 55.3556 59.9174 54.0742 59.9174L54.0906 66.8475ZM55.6425 65.5502L55.6589 61.1819C56.4266 61.1819 57.0906 61.1545 57.5059 61.6335C58.29 62.5395 58.2463 64.3048 57.4703 65.1013C56.9758 65.6104 56.4813 65.5502 55.6425 65.5502Z" fill="#D5DAD7"/>
<path fill-rule="evenodd" clip-rule="evenodd" d="M70.8925 64.329C70.7669 65.1857 70.2177 65.9056 69.2177 65.5662C68.4445 65.3034 68.3379 64.329 68.3407 63.3848C68.3434 62.487 68.4964 61.4689 69.2095 61.1979C70.2013 60.8229 70.7532 61.6221 70.7641 62.5582C71.0674 62.6403 72.0674 62.5062 72.4526 62.4925C72.3242 61.1267 71.6603 60.1551 70.4554 59.8923C67.4008 59.23 66.0046 62.1805 66.7341 64.7314C67.2751 66.6199 68.6795 66.7184 69.0565 66.9265L68.8161 67.8023C69.0975 67.7722 69.3707 67.7339 69.592 67.8625C69.756 67.9583 69.8707 68.18 69.715 68.399C69.439 68.7931 68.8243 68.4428 68.4745 68.3552L68.3243 68.7794C68.9991 69.0504 69.9335 69.3788 70.5046 68.7356C70.9281 68.2621 70.7204 67.2412 69.4718 67.3726L69.592 66.9566C70.4117 66.8936 71.1439 66.6774 71.6029 66.2586C71.9253 65.9658 72.51 65.0297 72.4308 64.4166L70.8925 64.329Z" fill="#D5DAD7"/>
<path fill-rule="evenodd" clip-rule="evenodd" d="M82.1168 61.1569C83.2561 60.8996 83.5703 62.0957 83.5977 63.0892C83.6277 64.1183 83.5293 65.4047 82.6141 65.61C81.4693 65.8673 81.1223 64.7068 81.084 63.6886C81.0567 62.8155 81.0704 61.3923 82.1168 61.1569ZM82.4064 66.9484C85.3299 66.9484 86.0484 62.9715 84.5102 60.8257C83.2288 59.0357 79.36 59.3997 79.3928 63.3876C79.4064 65.3555 80.3928 66.9484 82.4064 66.9484Z" fill="#D5DAD7"/>
<path fill-rule="evenodd" clip-rule="evenodd" d="M40.5395 59.9308C40.4821 60.6671 40.5313 61.6168 40.5313 62.3777C40.5313 64.6412 40.0914 66.9485 43.2826 66.9485C44.8454 66.9485 45.9055 66.4203 46.0257 64.7671L46.0339 59.9199L44.6678 59.939C44.6077 61.0229 44.6624 62.2792 44.6624 63.3822C44.6624 64.644 44.8891 65.643 43.4301 65.6348C42.0586 65.6293 42.2744 64.4989 42.2744 63.3329C42.2744 62.3148 42.3564 60.886 42.2635 59.9171L40.5395 59.9308Z" fill="#D5DAD7"/>
<path fill-rule="evenodd" clip-rule="evenodd" d="M74.9514 64.1513C75.0279 63.8229 75.6016 61.8686 75.7055 61.7236L76.4213 64.1513H74.9514ZM74.1071 66.8473C74.1918 66.642 74.282 66.3218 74.3503 66.0918C74.4049 65.9085 74.4787 65.4103 74.6645 65.4103L76.8093 65.4158L77.2437 66.8445H78.9431C78.9131 66.527 77.3011 61.5128 77.0333 60.6561C76.9896 60.5193 76.9404 60.377 76.9022 60.2346C76.8448 60.0239 76.8666 59.9171 76.6754 59.9171H75.0169C74.8448 59.9555 74.5169 61.2419 74.3913 61.6004C74.1973 62.156 74.006 62.7773 73.8312 63.3548C73.6536 63.9406 73.4569 64.5181 73.2656 65.1065C73.1317 65.5198 72.7793 66.4668 72.7383 66.8445H74.1071V66.8473Z" fill="#D5DAD7"/>
<path fill-rule="evenodd" clip-rule="evenodd" d="M62.1111 64.1505C62.2095 63.7372 62.3543 63.3047 62.4772 62.9106C62.5783 62.5794 62.7231 61.9937 62.8707 61.731L63.5811 64.1505H62.1111ZM61.2751 66.8464C61.368 66.6056 61.4417 66.3319 61.5128 66.0801C61.6576 65.5819 61.6385 65.4122 61.8434 65.4122C64.7504 65.4122 63.7204 65.0975 64.4089 66.8464H66.1083C66.0728 66.4961 65.6958 65.4752 65.5756 65.0838L64.4717 61.553C64.4007 61.3204 64.0537 59.9191 63.8515 59.9191C61.7095 59.9191 62.1521 59.7247 61.8406 60.7128L60.9964 63.3458C60.8133 63.9425 59.939 66.4906 59.8926 66.8492H61.2751V66.8464Z" fill="#D5DAD7"/>
<path fill-rule="evenodd" clip-rule="evenodd" d="M36.517 61.2829L39.752 61.2664L39.741 59.9198H34.834L34.8476 66.8472H36.5061V64.1294L39.0716 64.1266L39.0552 62.843L36.5061 62.8265L36.517 61.2829Z" fill="#D5DAD7"/>
<path fill-rule="evenodd" clip-rule="evenodd" d="M22.4144 64.5919C22.4144 62.4898 23.4691 62.8812 23.6822 63.1686C23.9253 63.497 23.9745 65.1995 23.715 65.5936C23.4335 66.0206 22.4144 66.2751 22.4144 64.5919ZM23.8734 62.4761C22.9199 61.3813 20.9062 61.8001 20.9062 64.4413C20.9062 66.8143 22.4718 67.3781 23.4281 66.7185C23.745 66.4968 23.6904 66.4722 23.9226 66.204C23.9226 67.0032 23.6767 66.8581 25.2805 66.8581V60.3577H23.8707V62.4761H23.8734Z" fill="#0F3834"/>
<path fill-rule="evenodd" clip-rule="evenodd" d="M28.3504 66.0059C27.9706 66.0059 27.6454 66.0059 27.6454 65.4011C27.6454 64.8509 28.4678 64.5964 29.0553 64.5964V65.1492C29.0553 65.5434 28.7301 66.0059 28.3504 66.0059ZM26.2903 63.4879C26.7493 63.4879 27.1509 63.5891 27.599 63.5891C27.7001 63.1485 27.8913 62.883 28.4023 62.883C29.1509 62.883 29.0553 63.4496 29.0553 63.841C28.2957 63.841 26.9487 64.0216 26.4815 64.5854C25.8395 65.36 25.9925 66.9639 27.6482 66.9639C28.1782 66.9639 28.5443 66.8024 28.8695 66.474C28.9815 66.3617 29.0607 66.2304 29.1564 66.1565C29.1564 66.474 29.1864 66.6218 29.2055 66.8626H30.6153C30.5334 65.8882 30.5143 66.3535 30.5143 65.2012C30.5143 64.6128 30.5143 64.0243 30.517 63.4359C30.517 62.8228 30.3093 62.5135 29.935 62.2562C29.0416 61.6431 26.2903 61.7882 26.2903 63.4879Z" fill="#0F3834"/>
<path fill-rule="evenodd" clip-rule="evenodd" d="M82.1165 61.1582C81.0701 61.3936 81.0564 62.8168 81.0865 63.6899C81.122 64.7081 81.4717 65.8686 82.6165 65.6113C83.529 65.406 83.6301 64.1196 83.6001 63.0905C83.5728 62.0942 83.2558 60.9009 82.1165 61.1582Z" fill="#0F3834"/>
<path fill-rule="evenodd" clip-rule="evenodd" d="M55.6426 65.5503C56.4841 65.5503 56.9759 65.6078 57.4704 65.0987C58.2464 64.3022 58.2874 62.5369 57.5059 61.6309C57.0907 61.1519 56.4267 61.1793 55.659 61.1793L55.6426 65.5503Z" fill="#0F3834"/>
<path fill-rule="evenodd" clip-rule="evenodd" d="M78.6641 49.632H81.246L79.9783 45.3705L78.6641 49.632Z" fill="#0F3834"/>
<path fill-rule="evenodd" clip-rule="evenodd" d="M74.1631 58.548C74.215 58.6657 74.4445 58.9722 74.562 59.0789C75.3352 58.5507 75.2396 58.8271 76.0538 59.068C76.7696 59.2787 77.2887 58.8572 77.5291 58.4987C77.4718 58.3564 77.2532 58.0471 77.1275 57.9705C76.9007 58.1183 76.8133 58.329 76.4718 58.3454C76.051 58.3646 74.9855 57.4778 74.1631 58.548Z" fill="#D5DAD7"/>
<path fill-rule="evenodd" clip-rule="evenodd" d="M74.9482 64.1522H76.4182L75.7023 61.7245C75.5985 61.8695 75.0247 63.8238 74.9482 64.1522Z" fill="#0F3834"/>
<path fill-rule="evenodd" clip-rule="evenodd" d="M62.1113 64.1521H63.584L62.8736 61.7326C62.7261 61.9954 62.5813 62.5811 62.4802 62.9123C62.3545 63.3091 62.207 63.7388 62.1113 64.1521Z" fill="#0F3834"/>
<path fill-rule="evenodd" clip-rule="evenodd" d="M74.1053 66.8476H72.7392C72.7802 66.4699 73.1326 65.5229 73.2665 65.1096C73.4577 64.5211 73.6517 63.9436 73.8321 63.3579C74.0069 62.7804 74.1954 62.1591 74.3922 61.6035C74.5151 61.2477 74.8457 59.9585 75.0178 59.9202H76.6763C76.8675 59.9202 76.8457 60.0297 76.903 60.2377C76.9413 60.38 76.9905 60.5224 77.0342 60.6592C77.302 61.5159 78.914 66.5301 78.944 66.8476H77.2391L76.8047 65.4189L74.6599 65.4134C74.4741 65.4134 74.4003 65.9115 74.3457 66.0949C74.2829 66.3221 74.1927 66.6423 74.1053 66.8476ZM61.2749 66.8476H59.8924C59.9415 66.4918 60.8131 63.9409 60.9962 63.3442L61.8404 60.7112C62.1546 59.7231 61.7093 59.9175 63.8513 59.9175C64.0508 59.9175 64.4005 61.3188 64.4715 61.5515L65.5753 65.0822C65.6956 65.4736 66.0726 66.4945 66.1081 66.8448H64.4087C63.7202 65.0959 64.7502 65.4107 61.8431 65.4107C61.6382 65.4107 61.6574 65.5831 61.5126 66.0785C61.4388 66.333 61.3677 66.6067 61.2749 66.8476ZM40.5402 59.9312L42.2669 59.9202C42.3625 60.8891 42.2778 62.3151 42.2778 63.336C42.2778 64.5047 42.062 65.6324 43.4336 65.6378C44.8926 65.6433 44.6658 64.647 44.6658 63.3853C44.6658 62.2823 44.6084 61.026 44.6713 59.9421L46.0374 59.923L46.0292 64.7702C45.9089 66.4234 44.8488 66.9516 43.286 66.9516C40.0948 66.9516 40.5347 64.6416 40.5347 62.3808C40.532 61.6172 40.4828 60.6674 40.5402 59.9312ZM54.0892 66.8476C55.376 66.8476 57.2394 67.0228 58.2093 66.3932C60.3268 65.0193 60.1765 61.5268 58.2011 60.3308C57.253 59.7587 55.3542 59.9202 54.0728 59.9202L54.0892 66.8476ZM82.4057 66.9489C80.3921 66.9489 79.4057 65.3559 79.3894 63.3853C79.3566 59.3974 83.2254 59.0362 84.5068 60.8234C86.0477 62.972 85.3292 66.9489 82.4057 66.9489ZM48.6029 62.7804C48.6029 63.9436 48.6384 65.7528 48.5974 66.8394L47.3625 66.8503L47.3597 59.9202H49.0783L51.4171 63.96C51.4171 62.8899 51.3761 60.7796 51.4307 59.9202L52.6575 59.9257L52.6629 66.8284L51.2968 66.8476L48.5947 62.1837C48.5428 62.3343 48.6029 62.5696 48.6029 62.7804ZM36.5074 62.8269L39.0566 62.8433L39.0702 64.127H36.5074V66.8476H34.8517L34.8381 59.9202H39.7451L39.7533 61.2641L36.5184 61.2805L36.5074 62.8269ZM70.8922 64.3295C70.7665 65.1862 70.2173 65.9061 69.2174 65.5667C68.4441 65.3039 68.3376 64.3295 68.3403 63.3853C68.3431 62.4875 68.4961 61.4694 69.2092 61.1984C70.201 60.8234 70.7529 61.6226 70.7638 62.5587C71.0671 62.6408 72.0671 62.5067 72.4523 62.493C72.3239 61.1272 71.66 60.1556 70.4551 59.8928C67.4005 59.2305 66.0043 62.181 66.7338 64.7319C67.2748 66.6204 68.6791 66.7189 69.0562 66.927L68.8157 67.8028C69.0971 67.7727 69.3704 67.7344 69.5917 67.863C69.7556 67.9588 69.8704 68.1805 69.7146 68.3995C69.4387 68.7936 68.8239 68.4433 68.4742 68.3557L68.3239 68.7799C68.9988 69.0509 69.9332 69.3793 70.5042 68.7361C70.9277 68.2626 70.7201 67.2417 69.4715 67.3731L69.5917 66.9571C70.4113 66.8941 71.1436 66.6779 71.6026 66.2591C71.925 65.9663 72.5097 65.0302 72.4304 64.4171L70.8922 64.3295ZM74.1627 58.549C74.985 57.4788 76.0506 58.3656 76.4714 58.3437C76.8129 58.3273 76.9003 58.1165 77.1271 57.9687C77.2528 58.0481 77.4713 58.3546 77.5287 58.497C77.2883 58.8583 76.7692 59.2797 76.0533 59.0663C75.2364 58.8254 75.3348 58.549 74.5616 59.0772C74.4441 58.9732 74.2146 58.6667 74.1627 58.549ZM32.9364 42.2282H35.7533L35.7561 54.167L35.737 54.3559L32.9364 54.3477V42.2282ZM78.6243 42.2282L81.9084 42.2309L85.6734 54.3559H82.6625L81.9003 51.8488H77.9823L77.2145 54.3531L74.7528 54.3477L78.6243 42.2282ZM38.2178 42.2282L41.2669 42.2336C41.8598 43.3668 44.8516 48.5151 45.3789 49.3554C45.2669 47.2752 45.3352 44.3904 45.3352 42.2282H47.5209C47.5209 43.7691 47.5729 53.6853 47.5046 54.3559H45.1057L40.3516 46.2051C40.4363 47.5626 40.4609 53.3049 40.3981 54.3531H38.2178L38.2069 54.1643L38.2178 42.2282ZM60.3186 42.2282C61.182 42.2282 64.1027 42.1899 64.7447 42.2419C65.0617 43.4325 65.4305 44.6395 65.7912 45.8273C65.9742 46.4295 66.6873 49.0926 66.8677 49.4128C66.9032 49.3636 66.8649 49.4457 66.9305 49.3006C66.977 49.2048 66.9305 49.3143 66.9742 49.1857L67.1846 48.4905C67.2802 48.1812 67.3622 47.9129 67.4551 47.6037C67.8321 46.3501 68.8622 43.2409 69.1053 42.2282H73.5315L73.5124 54.3559H70.69L70.6654 44.4999L67.619 54.3559C67.201 54.3559 65.9879 54.4352 65.6846 54.3203L62.6929 44.5026L62.6819 54.3559H60.3377L60.3268 54.167L60.3186 42.2282ZM49.9581 42.2282C51.3952 42.2282 57.6902 42.168 58.6082 42.2419V44.5218H52.8405L52.8378 47.0289H57.376L57.3815 49.3088H52.8405L52.8378 51.9665C54.1056 51.9665 57.5809 51.9117 58.6 51.9747L58.5973 54.3586H49.9717L49.9608 54.1698V42.2282H49.9581ZM20.9448 48.2742C20.9448 44.8201 22.8929 42.0393 26.289 42.0393C29.3682 42.0393 31.0266 43.7472 31.2862 46.7333L28.3272 46.9112C28.3272 46.101 28.136 45.3703 27.7097 44.8858C27.3081 44.4287 26.4666 44.1906 25.6879 44.4424C24.412 44.8557 24.0923 46.591 24.0923 48.1702C24.0923 49.1501 24.1114 50.2066 24.5021 51.0715C25.1852 52.585 28.0841 53.0175 28.5513 49.9356L31.2753 50.0971C31.2971 50.6281 30.9966 51.534 30.7807 51.9582C30.4857 52.533 30.2015 52.9627 29.7999 53.2966C26.5349 55.9953 20.9448 54.4325 20.9448 48.2742ZM18.3438 57.1887H29.2562C29.4365 57.1887 30.6059 58.5134 30.9283 58.8391C31.1742 59.0827 32.5266 60.4594 32.5266 60.5634V71.6456H88.7417V40.9692C88.7417 40.8159 88.3865 40.5367 88.2772 40.4272C88.1051 40.2548 87.9084 40.0851 87.7581 39.8908C87.3947 39.4173 86.8838 38.9985 86.4658 38.5633L85.6871 37.7313C85.5395 37.5835 84.7335 36.6857 84.6188 36.6857H18.3438V57.1887Z" fill="#0F3834"/>
</g>
<defs>
<filter id="filter0_d_549_1765" x="6.34375" y="28.6857" width="94.3975" height="58.9598" filterUnits="userSpaceOnUse" color-interpolation-filters="sRGB">
<feFlood flood-opacity="0" result="BackgroundImageFix"/>
<feColorMatrix in="SourceAlpha" type="matrix" values="0 0 0 0 0 0 0 0 0 0 0 0 0 0 0 0 0 0 127 0" result="hardAlpha"/>
<feOffset dy="4"/>
<feGaussianBlur stdDeviation="6"/>
<feComposite in2="hardAlpha" operator="out"/>
<feColorMatrix type="matrix" values="0 0 0 0 0 0 0 0 0 0 0 0 0 0 0 0 0 0 0.03 0"/>
<feBlend mode="normal" in2="BackgroundImageFix" result="effect1_dropShadow_549_1765"/>
<feBlend mode="normal" in="SourceGraphic" in2="effect1_dropShadow_549_1765" result="shape"/>
</filter>
</defs>
</svg>
