<svg width="107" height="107" viewBox="0 0 107 107" fill="none" xmlns="http://www.w3.org/2000/svg">
<circle cx="53.5" cy="53.5" r="53.5" fill="#D5DAD7"/>
<g filter="url(#filter0_d_558_2129)">
<path fill-rule="evenodd" clip-rule="evenodd" d="M79.2755 47.7457L88.818 47.7343L88.8424 44.0314H75.3314L75.2635 55.2485C73.3729 52.6944 68.3287 46.3346 67.2204 44L63.2573 44.2109L63.2899 51.4743L56.059 51.2947V44.0342H52.0497L52.0931 48.4526L48.2359 48.5097C47.4808 50.9811 46.943 53.4127 46.2557 55.984C45.8727 57.4064 45.0307 59.6955 42.9961 59.322C38.8944 58.5723 44.4494 52.6972 41.1544 49.3107C38.0958 46.1665 33.8692 50.183 33.3993 50.4196C31.8265 48.4983 28.8304 46.6596 26.7769 49.6185C26.7171 49.533 26.6383 49.4076 26.603 49.3591L22.6182 48.4042L19 62.8425L22.7078 62.7399C23.4548 61.3032 24.2344 57.5375 24.6717 55.7759C25.8071 51.1921 29.0695 50.5393 29.5122 53.7491C29.7295 55.3255 27.8471 60.0347 27.5212 62.8226L31.3811 62.7969C31.8428 60.562 32.5355 58.2103 33.1141 55.9212C34.4831 50.5108 38.7831 50.5564 37.8894 55.0575C37.156 58.7548 35.969 64.7866 43.3737 62.4662C45.8184 61.6994 43.5149 62.2753 45.3811 62.6971C46.3671 62.9223 47.4455 62.8197 48.4695 62.8197C49.2926 59.4845 50.5801 52.2725 52.0551 49.7753L52.1121 62.8083L56.059 62.8169L56.0454 55.3483L63.2872 55.2856L63.3007 62.7855L67.2611 62.6487V51.48C67.981 52.0302 67.4594 51.5883 68.057 52.1955C68.1765 52.3152 68.5243 52.7143 68.6682 52.8967C69.1409 53.4897 69.2876 53.7662 69.6814 54.2993L75.7742 62.8169L89 62.8425L88.9973 59.1082L79.3244 59.151L79.2837 55.2285L87.6962 55.2371L87.7559 51.5484L79.357 51.5627L79.2755 47.7457Z" fill="#0F3834"/>
</g>
<defs>
<filter id="filter0_d_558_2129" x="7" y="36" width="94" height="42.9831" filterUnits="userSpaceOnUse" color-interpolation-filters="sRGB">
<feFlood flood-opacity="0" result="BackgroundImageFix"/>
<feColorMatrix in="SourceAlpha" type="matrix" values="0 0 0 0 0 0 0 0 0 0 0 0 0 0 0 0 0 0 127 0" result="hardAlpha"/>
<feOffset dy="4"/>
<feGaussianBlur stdDeviation="6"/>
<feComposite in2="hardAlpha" operator="out"/>
<feColorMatrix type="matrix" values="0 0 0 0 0 0 0 0 0 0 0 0 0 0 0 0 0 0 0.03 0"/>
<feBlend mode="normal" in2="BackgroundImageFix" result="effect1_dropShadow_558_2129"/>
<feBlend mode="normal" in="SourceGraphic" in2="effect1_dropShadow_558_2129" result="shape"/>
</filter>
</defs>
</svg>
