<svg width="107" height="107" viewBox="0 0 107 107" fill="none" xmlns="http://www.w3.org/2000/svg">
<circle cx="53.5" cy="53.5" r="53.5" fill="#D5DAD7"/>
<path d="M52.9811 27.8298C52.8017 27.8688 52.5598 27.9468 52.435 28.0093C52.2477 28.1107 50.0942 29.5776 46.5987 31.9729C46.1305 32.3006 44.8431 33.1823 43.7507 33.9314C41.2617 35.6323 38.2266 37.7546 33.2563 41.2501C32.2498 41.9602 30.424 43.2398 29.1912 44.0981C26.6164 45.8926 26.4994 45.9863 26.2107 46.47C26.0234 46.7899 26 46.907 26 47.5468C26 48.249 26 48.2646 26.3121 48.7094C26.7256 49.318 27.2874 49.6144 28.0052 49.6222C28.5514 49.6222 28.8713 49.4974 29.6672 48.9434C29.9247 48.764 31.6802 47.5312 33.5684 46.2047C36.7675 43.9576 37.9067 43.1618 40.5127 41.3516C41.0745 40.9692 42.3541 40.0798 43.3606 39.3775C44.3671 38.6753 45.5375 37.8638 45.9589 37.5673C46.3802 37.2787 47.059 36.8027 47.4804 36.5062C47.8939 36.2097 48.7444 35.6167 49.3686 35.1876C49.9928 34.7584 51.1397 33.9626 51.9278 33.4164C52.708 32.878 53.3791 32.4333 53.4025 32.4333C53.4337 32.4333 53.7224 32.6127 54.0423 32.839C56.0631 34.2201 65.3247 40.6649 67.3144 42.0694C67.8059 42.4127 68.9841 43.2398 69.9282 43.8874C70.8723 44.5428 72.1909 45.4635 72.8542 45.9317C74.914 47.3829 77.957 49.4116 78.1989 49.5052C78.6514 49.6769 78.9948 49.6925 79.4317 49.5676C80.3758 49.2945 81 48.4831 81 47.5468C80.9922 46.6885 80.5865 46.0409 79.6424 45.4089C78.7217 44.7847 74.1104 41.5856 73.2443 40.9771C72.7059 40.5947 71.7618 39.9315 71.1376 39.4946C67.7201 37.1148 64.4118 34.8131 62.8279 33.7207C61.8448 33.0419 59.7147 31.5672 58.1074 30.4514C56.5001 29.3357 55.0176 28.3136 54.8147 28.1731C54.2764 27.8064 53.6834 27.6972 52.9811 27.8298Z" fill="#0F3834"/>
<path d="M51.9048 35.9678C51.0933 36.5452 49.5953 37.5829 48.5887 38.2851C47.5822 38.9874 46.1934 39.9471 45.5067 40.4308C44.8201 40.9068 43.8058 41.6168 43.244 42.007C42.69 42.3971 41.387 43.3022 40.3571 44.02C39.3271 44.7456 38.2582 45.4947 37.9773 45.6819C37.6964 45.877 36.6431 46.6182 35.6365 47.3283C34.63 48.0383 33.5221 48.8108 33.1787 49.0526L32.5545 49.4896L32.5624 61.8644L32.578 74.2392L30.6897 74.2704C28.6455 74.2938 28.5519 74.3172 28.0447 74.7932C27.1162 75.6514 27.3425 77.2354 28.466 77.7971L28.8796 78H53.4185C69.3825 78 78.0589 77.9688 78.2461 77.922C78.605 77.8205 79.1356 77.3602 79.3307 76.9857C79.557 76.5331 79.596 76.1274 79.4555 75.6514C79.2995 75.1131 78.964 74.7073 78.4568 74.4577C78.0589 74.2548 78.0277 74.2548 76.2721 74.2548H74.4931V61.9346V49.6144L73.3461 48.7951C72.2304 48.0071 70.6699 46.9225 65.7153 43.4738C64.4279 42.5765 62.1651 41.0004 60.6827 39.9627C59.2002 38.925 57.1169 37.4737 56.0401 36.7246C54.9712 35.9834 53.9647 35.2734 53.8086 35.1485C53.6526 35.0315 53.4887 34.9301 53.4575 34.9301C53.4185 34.9301 52.7241 35.3982 51.9048 35.9678ZM68.9221 48.7405C69.281 49.0214 69.203 49.2165 68.649 49.3569C66.7998 49.8251 66.3083 53.3518 67.8844 54.8031C68.1029 55.006 68.3681 55.162 68.5788 55.2166C69.0782 55.3415 69.1094 55.3571 69.1094 55.4741C69.1094 55.5365 69.0392 55.6458 68.9455 55.7316C68.7895 55.872 68.493 55.8798 59.0753 55.9032L49.369 55.9189V52.2595C49.369 49.8875 49.4002 48.5845 49.447 48.5689C49.486 48.5533 53.8554 48.5611 59.1456 48.5845C67.5489 48.6157 68.7895 48.6391 68.9221 48.7405ZM39.0619 52.2517L39.0853 55.9189H38.9214C38.7029 55.9189 38.1412 55.4039 38.0007 55.084C37.9227 54.8889 37.8993 54.2413 37.8993 52.2751C37.8993 49.8251 37.9071 49.7158 38.0631 49.3803C38.1802 49.1541 38.3518 48.959 38.5859 48.8108C38.781 48.6859 38.9682 48.5845 38.9916 48.5845C39.015 48.5845 39.0462 50.2308 39.0619 52.2517ZM46.4821 52.2517V55.9189H45.1556H43.8292V53.4533C43.8292 51.9162 43.798 50.933 43.7512 50.8394C43.5327 50.4493 42.8383 50.3635 42.534 50.699C42.3935 50.855 42.3857 51.0423 42.3623 53.3908L42.3389 55.9189H41.6055H40.8642V52.2517V48.5845H43.6731H46.4821V52.2517ZM39.0541 61.0685C39.0619 62.8553 39.0384 63.9633 38.9916 63.9945C38.8512 64.0803 38.383 63.7838 38.1568 63.4717L37.9383 63.1518L37.9149 61.3104C37.8993 60.2961 37.9149 59.3598 37.9383 59.2193C38.0085 58.8292 38.6405 58.1816 38.9526 58.1816C39.0072 58.1816 39.0384 59.1257 39.0541 61.0685ZM46.443 61.0685V63.9164L43.6575 63.9398L40.8642 63.9555V61.0685V58.1816L43.6575 58.1972L46.443 58.2206V61.0685ZM68.7973 58.322C68.9455 58.3923 69.0782 58.5093 69.0938 58.5873C69.1172 58.7122 69.0704 58.7278 68.3993 58.8448C67.9234 58.915 67.5177 59.2817 67.2212 59.8747C66.9871 60.3507 66.9637 60.4677 66.9637 61.1075C66.9637 61.9892 67.1197 62.4184 67.5801 62.8475C67.939 63.183 68.3291 63.3313 68.8207 63.3313C69.1796 63.3313 69.1952 63.4951 68.8519 63.7526L68.6334 63.9164L59.0207 63.9086L49.408 63.9008L49.3846 61.0451L49.369 58.1816H58.9427C67.9078 58.1816 68.5398 58.1894 68.7973 58.322ZM43.4313 66.265L43.6731 66.3118V70.0024V73.6852L43.3142 73.7398C43.1114 73.7632 42.4794 73.7866 41.9098 73.7866H40.8642V70.0024V66.2182H42.0268C42.6666 66.2182 43.2986 66.2416 43.4313 66.265ZM46.443 70.0024V73.7476L45.8422 73.7554L45.2337 73.771V69.9868V66.2104L45.8422 66.2338L46.443 66.2572V70.0024ZM68.6568 66.2962C68.9455 66.382 69.2186 66.6473 69.1406 66.7722C69.125 66.8112 68.9065 66.897 68.6724 66.975C68.0794 67.1545 67.7049 67.5056 67.3694 68.1844C66.4331 70.0336 67.1119 72.5148 68.6724 72.9674C69.0392 73.0766 69.1094 73.1234 69.1094 73.2795C69.1094 73.3887 69.0235 73.5135 68.8987 73.5994C68.688 73.7398 68.3213 73.7476 59.0441 73.7476H49.408L49.3846 69.979L49.369 66.2182H58.8647C65.1613 66.2182 68.4696 66.2494 68.6568 66.2962ZM39.0541 70.0024C39.0775 72.7021 39.0541 73.7086 38.9916 73.7086C38.82 73.7086 38.4611 73.4745 38.2582 73.2405C37.9071 72.8191 37.8915 72.6007 37.9149 69.7995C37.9383 67.1857 37.9383 67.1779 38.1256 66.9126C38.227 66.7644 38.422 66.5615 38.5547 66.4757C39.0619 66.1246 39.0306 65.9139 39.0541 70.0024Z" fill="#0F3834"/>
<path d="M62.6024 50.816C62.501 50.9174 62.4776 51.1515 62.4776 52.1814C62.4776 53.7732 62.4542 53.7341 63.5933 53.7341C64.7013 53.7341 64.6623 53.7888 64.6623 52.2205C64.6623 51.526 64.6311 50.9252 64.5843 50.8394C64.5062 50.7068 64.4126 50.6912 63.6089 50.6912C62.9067 50.6912 62.696 50.7146 62.6024 50.816Z" fill="#0F3834"/>
<path d="M62.6103 59.7265C62.5011 59.8513 62.4777 60.0698 62.4777 61.131C62.4777 62.6837 62.4387 62.629 63.6247 62.629C64.2411 62.629 64.4439 62.6056 64.5376 62.5042C64.639 62.4028 64.6624 62.1609 64.6624 61.1075C64.6624 60.0542 64.639 59.8123 64.5376 59.7109C64.4439 59.6095 64.2333 59.5861 63.5778 59.5861C62.86 59.5861 62.7196 59.6095 62.6103 59.7265Z" fill="#0F3834"/>
<path d="M63.0005 68.6292C62.7898 68.6604 62.5869 68.7384 62.5479 68.8008C62.5089 68.8555 62.4777 69.4797 62.4777 70.1741C62.4777 71.7346 62.4387 71.68 63.6169 71.68C64.6936 71.68 64.6624 71.7346 64.6624 70.1507C64.6624 68.6136 64.6624 68.6136 63.9134 68.5902C63.6169 68.5824 63.2033 68.598 63.0005 68.6292Z" fill="#0F3834"/>
</svg>
