<svg width="126" height="47" viewBox="0 0 126 47" fill="none" xmlns="http://www.w3.org/2000/svg">
<path fill-rule="evenodd" clip-rule="evenodd" d="M90.2407 2.37457C93.4689 2.37457 98.4991 1.79728 99.9789 3.96458C100.819 5.19745 100.941 7.36966 100.101 8.78844C98.6652 11.215 93.6252 10.491 90.2993 10.491L90.2407 9.30702V2.37457ZM87.8037 22.5897L90.2456 22.7072V12.7023C96.7459 12.7023 95.2417 11.7238 97.9619 17.35C98.797 19.0819 100.033 20.941 100.555 22.6729L103.466 22.6974L98.2989 12.4773C102.704 11.6456 104.828 6.07318 101.869 2.39903C99.6419 -0.360252 92.2772 -0.189018 87.8135 0.256185V22.5897H87.8037Z" fill="white"/>
<path fill-rule="evenodd" clip-rule="evenodd" d="M22.9731 2.45245C29.6004 1.79688 33.7516 2.32525 33.7516 9.31152C33.7516 18.0297 34.113 21.4788 22.9731 20.3829V2.45245ZM20.5361 22.7068C28.609 22.7068 36.1935 24.2674 36.1935 13.7244C36.1935 6.98765 37.0432 0.167725 27.6176 0.167725H20.541V22.7068H20.5361Z" fill="white"/>
<path fill-rule="evenodd" clip-rule="evenodd" d="M79.8532 11.2C79.8532 15.9945 79.6334 20.789 74.2027 20.6521C69.2945 20.5249 68.938 16.063 68.9234 11.5132C68.9136 6.85564 69.1871 2.37425 74.1832 2.26173C79.8923 2.13453 79.8532 7.63353 79.8532 11.2ZM72.088 0.42221C65.8222 2.35958 66.4864 6.86053 66.5596 14.0425C66.5987 17.7069 67.0822 19.1941 69.1285 21.0141C70.9599 22.6481 73.8657 23.3282 76.7325 22.565C82.6956 20.975 82.2707 15.6276 82.2267 8.99849C82.1681 1.49852 77.0597 -1.10909 72.088 0.42221Z" fill="white"/>
<path fill-rule="evenodd" clip-rule="evenodd" d="M115.042 4.0329L118.929 15.4614L110.837 15.4272L115.042 4.0329ZM105.817 22.7119H108.078C108.947 21.3665 109.367 19.2432 110.105 17.5896H119.745C120.116 18.4898 120.336 19.1307 120.673 20.1189C121.684 23.069 120.995 22.707 124.111 22.707L115.994 0.197302L113.845 0.177734C112.781 3.75893 105.777 20.9751 105.817 22.7119Z" fill="white"/>
<path fill-rule="evenodd" clip-rule="evenodd" d="M1.66015 22.6331L15.4617 22.7114L15.5398 20.5441L4.09228 20.4805V12.5402L13.9282 12.4326V10.412L4.09228 10.231V2.45218L15.5789 2.35923V0.250626L1.65039 0.182129L1.66015 22.6331Z" fill="white"/>
<path fill-rule="evenodd" clip-rule="evenodd" d="M6.21703 39.2853C5.21097 37.7638 3.23792 33.8401 2.7935 32.2061L0 32.2599V45.8606L2.67631 45.8802L2.70072 38.39L5.28422 43.0524C7.3647 43.1502 6.96424 43.478 8.24379 40.9683C8.44402 40.5818 8.66866 40.0925 8.88354 39.7256L9.79194 38.5465L9.83587 45.7628L12.5073 45.9584L12.395 32.1572C8.91285 32.162 10.1582 31.6141 7.51122 37.1082L6.21703 39.2853Z" fill="white"/>
<path fill-rule="evenodd" clip-rule="evenodd" d="M101.493 45.9602H104.165L104.17 37.7655C105.654 39.7029 109.2 45.7792 110.064 45.9602H112.028C112.028 43.289 112.355 34.0767 111.832 32.1687H109.547L109.332 40.2851C108.365 39.5561 105.601 34.7665 104.516 33.1423C103.613 31.792 103.632 32.1687 101.674 32.1687C101.166 34.0767 101.493 43.289 101.493 45.9602Z" fill="white"/>
<path fill-rule="evenodd" clip-rule="evenodd" d="M63.0971 45.9602H65.7734L65.7783 37.7655C66.7453 39.0277 67.6781 40.3878 68.5474 41.7577C71.419 46.2586 70.535 45.9602 73.6362 45.9602C73.6362 43.289 73.9634 34.0767 73.4409 32.1687H71.1553L70.9453 40.2851C69.9783 39.5561 67.2141 34.7665 66.1299 33.1423C65.2264 31.792 65.2459 32.1687 63.2876 32.1687C62.7699 34.0767 63.0971 43.289 63.0971 45.9602Z" fill="white"/>
<path fill-rule="evenodd" clip-rule="evenodd" d="M48.3877 2.37442L54.9172 2.43312C54.9172 6.01432 54.4728 20.3734 55.1126 22.7119C56.3286 22.7119 57.3542 23.0837 57.3542 21.9193V2.37442H63.8056V0.167969H48.3877V2.37442V2.37442Z" fill="white"/>
<path fill-rule="evenodd" clip-rule="evenodd" d="M86.7023 38.3329L81.5108 38.2546V40.4464L84.0309 40.5393C83.9723 42.5941 83.2006 44.0423 80.9053 43.5922C78.8785 43.191 79.1178 40.7448 79.1422 38.6313C79.1617 36.4934 79.1471 34.3945 81.7355 34.5071C85.1981 34.6538 81.2569 36.4298 86.6486 36.4298C85.9942 33.372 83.4106 31.2732 79.9041 32.374C76.4122 33.4699 76.334 36.464 76.4952 40.5247C76.6368 44.1401 78.7271 46.6058 82.6829 45.9209C86.3848 45.2702 86.7023 42.0951 86.7023 38.3329Z" fill="white"/>
<path fill-rule="evenodd" clip-rule="evenodd" d="M20.4679 36.5664L21.9966 41.2288L18.6707 41.1994L20.4679 36.5664ZM14.3389 45.9597C16.9175 45.9597 17.147 46.4147 17.8014 43.5184C22.9196 43.5184 22.9391 42.9069 23.5056 45.9401L26.3187 45.945C25.7473 43.9391 22.0991 33.0684 21.01 32.1682C18.9491 31.4294 18.6072 33.9734 18.1042 35.402C17.0933 38.2445 14.8614 43.6994 14.3389 45.9597Z" fill="white"/>
<path fill-rule="evenodd" clip-rule="evenodd" d="M93.8713 36.4737L95.395 41.234L92.0643 41.1802L93.8713 36.4737ZM87.7471 45.9404L90.5406 45.9306C90.5845 45.7545 90.8678 44.732 90.9019 44.6488C91.5222 43.1958 90.775 43.5187 96.2839 43.5187C96.8406 46.3856 96.6306 45.96 99.7269 45.96C99.219 43.7976 97.9345 40.7643 97.1336 38.6606C95.5073 34.3749 95.6441 32.1685 93.3927 32.1685C92.1913 32.1685 91.024 36.7722 90.2964 38.69C89.4271 40.9943 88.3624 43.6166 87.7471 45.9404Z" fill="white"/>
<path fill-rule="evenodd" clip-rule="evenodd" d="M55.4738 36.4735L57.0025 41.2337L53.6717 41.1799L55.4738 36.4735ZM49.3496 45.9402L52.1431 45.9304C52.9294 42.9069 52.2799 43.5184 57.8864 43.5184C58.4432 46.3854 58.2331 45.9597 61.3294 45.9597L57.486 35.1868C56.6508 32.9216 56.9634 32.1633 54.9952 32.1633C53.7938 32.1633 52.6217 36.767 51.8989 38.6848C51.0345 40.994 49.965 43.6163 49.3496 45.9402Z" fill="white"/>
<path fill-rule="evenodd" clip-rule="evenodd" d="M119.989 36.4737L121.518 41.234L118.187 41.1802L119.989 36.4737ZM113.865 45.9404L116.659 45.9306C117.445 42.9072 116.791 43.5187 122.402 43.5187C122.959 46.3856 122.749 45.96 125.845 45.96C125.337 43.7976 124.053 40.7643 123.252 38.6606C122.803 37.4767 122.446 36.3906 122.006 35.1919C121.171 32.9268 121.484 32.1685 119.511 32.1685C118.407 32.1685 118.139 33.9933 117.767 34.9962L113.865 45.9404Z" fill="white"/>
<path fill-rule="evenodd" clip-rule="evenodd" d="M28.2082 42.6869C27.6661 43.5039 27.4317 43.4452 27.0264 44.3014C29.942 47.6869 38.9182 46.0871 36.5887 40.045C35.485 37.1928 31.8759 38.3767 30.5524 37.227C29.3168 36.1556 30.2203 34.7906 31.4413 34.5167C33.0773 34.1497 34.0199 34.9032 35.2896 35.275C35.7585 34.4726 36.032 34.3308 36.4715 33.4795C31.0017 29.8836 25.0485 34.1644 28.0373 38.5137C29.7515 41.0088 33.8147 39.3552 34.2494 41.5029C35.021 45.3288 29.3315 42.9168 28.2082 42.6869Z" fill="white"/>
<path fill-rule="evenodd" clip-rule="evenodd" d="M39.5383 42.6869C38.9962 43.5039 38.7618 43.4452 38.3564 44.3014C41.272 47.6869 50.2484 46.0871 47.9139 40.045C46.8102 37.1928 43.206 38.3767 41.8776 37.227C40.6469 36.1556 41.5504 34.7906 42.7665 34.5167C44.4025 34.1497 45.3451 34.9032 46.6149 35.275C47.0837 34.4726 47.3523 34.3308 47.7967 33.4795C42.3269 29.8836 36.3737 34.1644 39.3576 38.5137C41.0718 41.0088 45.1351 39.3552 45.5697 41.5029C46.3511 45.3288 40.6616 42.9168 39.5383 42.6869Z" fill="white"/>
<path fill-rule="evenodd" clip-rule="evenodd" d="M41.7803 22.7065H43.0403L44.2221 22.6185L44.2172 0.250681L43.0403 0.152832L41.7803 0.1724V22.7065Z" fill="white"/>
</svg>
