<svg width="200" height="74" viewBox="0 0 200 74" fill="none" xmlns="http://www.w3.org/2000/svg">
<path fill-rule="evenodd" clip-rule="evenodd" d="M143.153 3.76691C148.274 3.76691 156.254 2.85111 158.601 6.28922C159.934 8.24499 160.127 11.6909 158.795 13.9415C156.517 17.791 148.522 16.6424 143.246 16.6424L143.153 14.7642V3.76691ZM139.287 35.8352L143.161 36.0215V20.1503C153.472 20.1503 151.086 18.5981 155.402 27.5232C156.726 30.2706 158.686 33.2198 159.515 35.9672L164.133 36.006L155.936 19.7933C162.924 18.4739 166.294 9.63419 161.599 3.8057C158.067 -0.571485 146.384 -0.299849 139.303 0.406399V35.8352H139.287Z" fill="white"/>
<path fill-rule="evenodd" clip-rule="evenodd" d="M36.4431 3.89049C46.9562 2.85052 53.5415 3.68871 53.5415 14.7714C53.5415 28.6014 54.1148 34.0729 36.4431 32.3345V3.89049ZM32.5771 36.0209C45.3835 36.0209 57.4152 38.4967 57.4152 21.7718C57.4152 11.0849 58.7632 0.266113 43.8108 0.266113H32.5849V36.0209H32.5771Z" fill="white"/>
<path fill-rule="evenodd" clip-rule="evenodd" d="M126.675 17.7673C126.675 25.373 126.326 32.9788 117.711 32.7615C109.925 32.5597 109.36 25.4817 109.337 18.264C109.321 10.8755 109.755 3.76647 117.68 3.58797C126.737 3.38619 126.675 12.1095 126.675 17.7673ZM114.357 0.669849C104.417 3.74319 105.471 10.8833 105.587 22.2764C105.649 28.0894 106.416 30.4487 109.662 33.3358C112.567 35.928 117.177 37.0067 121.725 35.796C131.184 33.2737 130.51 24.791 130.44 14.2748C130.347 2.37726 122.244 -1.75934 114.357 0.669849Z" fill="white"/>
<path fill-rule="evenodd" clip-rule="evenodd" d="M182.497 6.39763L188.664 24.5273L175.827 24.4729L182.497 6.39763ZM167.863 36.029H171.45C172.829 33.8947 173.495 30.5265 174.665 27.9033H189.958C190.547 29.3313 190.895 30.348 191.43 31.9157C193.034 36.5956 191.941 36.0213 196.884 36.0213L184.008 0.313024L180.599 0.281982C178.91 5.96301 167.801 33.2739 167.863 36.029Z" fill="white"/>
<path fill-rule="evenodd" clip-rule="evenodd" d="M2.63365 35.9039L24.5278 36.0281L24.6517 32.59L6.49186 32.4891V19.8931L22.0951 19.7223V16.517L6.49186 16.2299V3.88992L24.7137 3.74246V0.397479L2.61816 0.288818L2.63365 35.9039Z" fill="white"/>
<path fill-rule="evenodd" clip-rule="evenodd" d="M9.86238 62.3202C8.26643 59.9066 5.13647 53.6823 4.43147 51.0901L0 51.1755V72.751L4.24557 72.782L4.28429 60.9L8.38263 68.2962C11.683 68.4514 11.0477 68.9714 13.0775 64.99C13.3952 64.3769 13.7515 63.6008 14.0924 63.0187L15.5335 61.1483L15.6031 72.5957L19.841 72.9062L19.6628 51.0125C14.1389 51.0203 16.1145 50.151 11.9154 58.8666L9.86238 62.3202Z" fill="white"/>
<path fill-rule="evenodd" clip-rule="evenodd" d="M161.004 72.9089H165.242L165.25 59.9093C167.605 62.9827 173.23 72.6218 174.601 72.9089H177.715C177.715 68.6714 178.234 54.0575 177.405 51.0308H173.78L173.439 63.9062C171.905 62.7498 167.52 55.1518 165.8 52.5752C164.367 50.4332 164.398 51.0308 161.291 51.0308C160.485 54.0575 161.004 68.6714 161.004 72.9089Z" fill="white"/>
<path fill-rule="evenodd" clip-rule="evenodd" d="M100.094 72.9089H104.34L104.348 59.9093C105.882 61.9116 107.361 64.0692 108.74 66.2423C113.296 73.3823 111.894 72.9089 116.813 72.9089C116.813 68.6714 117.332 54.0575 116.503 51.0308H112.877L112.544 63.9062C111.01 62.7498 106.625 55.1518 104.905 52.5752C103.472 50.4332 103.503 51.0308 100.397 51.0308C99.5753 54.0575 100.094 68.6714 100.094 72.9089Z" fill="white"/>
<path fill-rule="evenodd" clip-rule="evenodd" d="M76.7598 3.76656L87.1179 3.85968C87.1179 9.54072 86.4129 32.3192 87.4278 36.0289C89.3569 36.0289 90.9838 36.6188 90.9838 34.7717V3.76656H101.218V0.266357H76.7598V3.76656V3.76656Z" fill="white"/>
<path fill-rule="evenodd" clip-rule="evenodd" d="M137.54 60.8094L129.305 60.6852V64.1621L133.303 64.3096C133.21 67.5692 131.985 69.8664 128.344 69.1524C125.129 68.516 125.509 64.6355 125.547 61.2828C125.578 57.8913 125.555 54.5618 129.661 54.7403C135.154 54.9731 128.902 57.7904 137.455 57.7904C136.417 52.9398 132.319 49.6103 126.756 51.3565C121.217 53.095 121.093 57.8447 121.348 64.2863C121.573 70.0217 124.889 73.9332 131.164 72.8467C137.037 71.8144 137.54 66.7776 137.54 60.8094Z" fill="white"/>
<path fill-rule="evenodd" clip-rule="evenodd" d="M32.469 58.007L34.8939 65.4032L29.618 65.3566L32.469 58.007ZM22.7461 72.908C26.8367 72.908 27.2008 73.6298 28.2389 69.0353C36.3581 69.0353 36.3891 68.0652 37.2878 72.877L41.7502 72.8848C40.8438 69.7028 35.0566 52.4579 33.3289 51.0299C30.0595 49.858 29.5172 53.8937 28.7192 56.1599C27.1156 60.669 23.5751 69.3225 22.7461 72.908Z" fill="white"/>
<path fill-rule="evenodd" clip-rule="evenodd" d="M148.912 57.8602L151.33 65.4116L146.046 65.3263L148.912 57.8602ZM139.197 72.8777L143.629 72.8622C143.698 72.5828 144.148 70.9607 144.202 70.8288C145.186 68.5238 144.001 69.036 152.74 69.036C153.623 73.5839 153.29 72.9087 158.201 72.9087C157.396 69.4784 155.358 64.6666 154.088 61.3293C151.508 54.5307 151.725 51.0305 148.153 51.0305C146.247 51.0305 144.396 58.3336 143.241 61.3759C141.862 65.0313 140.173 69.1912 139.197 72.8777Z" fill="white"/>
<path fill-rule="evenodd" clip-rule="evenodd" d="M88.0013 57.8596L90.4262 65.4111L85.1426 65.3257L88.0013 57.8596ZM78.2861 72.8771L82.7176 72.8616C83.9649 68.0653 82.9346 69.0354 91.8285 69.0354C92.7117 73.5833 92.3785 72.9081 97.2904 72.9081L91.1932 55.8185C89.8684 52.2252 90.3642 51.0222 87.2421 51.0222C85.3362 51.0222 83.4768 58.3253 82.3302 61.3676C80.9589 65.0308 79.2623 69.1906 78.2861 72.8771Z" fill="white"/>
<path fill-rule="evenodd" clip-rule="evenodd" d="M190.345 57.8602L192.77 65.4116L187.486 65.3263L190.345 57.8602ZM180.63 72.8777L185.061 72.8622C186.309 68.0659 185.271 69.036 194.172 69.036C195.055 73.5839 194.722 72.9087 199.634 72.9087C198.828 69.4784 196.791 64.6666 195.52 61.3293C194.808 59.4512 194.242 57.7282 193.545 55.8268C192.22 52.2335 192.716 51.0305 189.586 51.0305C187.835 51.0305 187.409 53.9254 186.82 55.5164L180.63 72.8777Z" fill="white"/>
<path fill-rule="evenodd" clip-rule="evenodd" d="M44.7479 67.7164C43.8879 69.0125 43.5161 68.9194 42.873 70.2775C47.4982 75.6481 61.7377 73.1103 58.0423 63.5255C56.2914 59.0008 50.5661 60.879 48.4666 59.0552C46.5065 57.3555 47.9398 55.1902 49.8766 54.7556C52.472 54.1735 53.9672 55.3687 55.9815 55.9585C56.7252 54.6857 57.1591 54.4607 57.8563 53.1103C49.1793 47.4059 39.7354 54.1968 44.4767 61.0963C47.196 65.0544 53.6418 62.4312 54.3313 65.8383C55.5554 71.9074 46.5298 68.0812 44.7479 67.7164Z" fill="white"/>
<path fill-rule="evenodd" clip-rule="evenodd" d="M62.7215 67.7164C61.8616 69.0125 61.4897 68.9194 60.8467 70.2775C65.4718 75.6481 79.7114 73.1103 76.0082 63.5255C74.2573 59.0008 68.5398 60.879 66.4325 59.0552C64.4802 57.3555 65.9134 55.1902 67.8425 54.7556C70.4379 54.1735 71.9331 55.3687 73.9474 55.9585C74.6912 54.6857 75.1173 54.4607 75.8223 53.1103C67.1453 47.4059 57.7013 54.1968 62.4349 61.0963C65.1542 65.0544 71.6 62.4312 72.2895 65.8383C73.529 71.9074 64.5034 68.0812 62.7215 67.7164Z" fill="white"/>
<path fill-rule="evenodd" clip-rule="evenodd" d="M66.2783 36.0205H68.2771L70.1519 35.8808L70.1442 0.397655L68.2771 0.242432L66.2783 0.273473V36.0205Z" fill="white"/>
</svg>
