<svg width="127" height="126" viewBox="0 0 127 126" fill="none" xmlns="http://www.w3.org/2000/svg">
<circle cx="63.333" cy="63" r="63" fill="#0F3834"/>
<mask id="mask0_653_1486" style="mask-type:alpha" maskUnits="userSpaceOnUse" x="35" y="35" width="57" height="56">
<rect x="35.333" y="35" width="56" height="56" fill="#D9D9D9"/>
</mask>
<g mask="url(#mask0_653_1486)">
<path d="M61 74.6667H65.6667V60.6667H61V74.6667ZM63.3333 56C63.9944 56 64.5486 55.7764 64.9958 55.3292C65.4431 54.882 65.6667 54.3278 65.6667 53.6667C65.6667 53.0056 65.4431 52.4514 64.9958 52.0042C64.5486 51.557 63.9944 51.3334 63.3333 51.3334C62.6722 51.3334 62.1181 51.557 61.6708 52.0042C61.2236 52.4514 61 53.0056 61 53.6667C61 54.3278 61.2236 54.882 61.6708 55.3292C62.1181 55.7764 62.6722 56 63.3333 56ZM63.3333 86.3334C60.1056 86.3334 57.0722 85.7209 54.2333 84.4959C51.3944 83.2709 48.925 81.6084 46.825 79.5084C44.725 77.4084 43.0625 74.9389 41.8375 72.1C40.6125 69.2611 40 66.2278 40 63C40 59.7722 40.6125 56.7389 41.8375 53.9C43.0625 51.0611 44.725 48.5917 46.825 46.4917C48.925 44.3917 51.3944 42.7292 54.2333 41.5042C57.0722 40.2792 60.1056 39.6667 63.3333 39.6667C66.5611 39.6667 69.5944 40.2792 72.4333 41.5042C75.2722 42.7292 77.7417 44.3917 79.8417 46.4917C81.9417 48.5917 83.6042 51.0611 84.8292 53.9C86.0542 56.7389 86.6667 59.7722 86.6667 63C86.6667 66.2278 86.0542 69.2611 84.8292 72.1C83.6042 74.9389 81.9417 77.4084 79.8417 79.5084C77.7417 81.6084 75.2722 83.2709 72.4333 84.4959C69.5944 85.7209 66.5611 86.3334 63.3333 86.3334ZM63.3333 81.6667C68.5444 81.6667 72.9583 79.8584 76.575 76.2417C80.1917 72.625 82 68.2111 82 63C82 57.7889 80.1917 53.375 76.575 49.7584C72.9583 46.1417 68.5444 44.3334 63.3333 44.3334C58.1222 44.3334 53.7083 46.1417 50.0917 49.7584C46.475 53.375 44.6667 57.7889 44.6667 63C44.6667 68.2111 46.475 72.625 50.0917 76.2417C53.7083 79.8584 58.1222 81.6667 63.3333 81.6667Z" fill="white"/>
</g>
</svg>
