<svg width="127" height="126" viewBox="0 0 127 126" fill="none" xmlns="http://www.w3.org/2000/svg">
<circle cx="63.667" cy="63" r="63" fill="#0F3834"/>
<mask id="mask0_652_1484" style="mask-type:alpha" maskUnits="userSpaceOnUse" x="35" y="35" width="57" height="56">
<rect x="35.667" y="35" width="56" height="56" fill="#D9D9D9"/>
</mask>
<g mask="url(#mask0_652_1484)">
<path d="M82.217 84C77.3559 84 72.5531 82.9403 67.8087 80.8208C63.0642 78.7014 58.7475 75.6972 54.8587 71.8083C50.9698 67.9194 47.9656 63.6028 45.8462 58.8583C43.7267 54.1139 42.667 49.3111 42.667 44.45C42.667 43.75 42.9003 43.1667 43.367 42.7C43.8337 42.2333 44.417 42 45.117 42H54.567C55.1114 42 55.5975 42.1847 56.0253 42.5542C56.4531 42.9236 56.7059 43.3611 56.7837 43.8667L58.3003 52.0333C58.3781 52.6556 58.3587 53.1806 58.242 53.6083C58.1253 54.0361 57.9114 54.4056 57.6003 54.7167L51.942 60.4333C52.7198 61.8722 53.6434 63.2625 54.7128 64.6042C55.7823 65.9458 56.9587 67.2389 58.242 68.4833C59.4475 69.6889 60.7114 70.8069 62.0337 71.8375C63.3559 72.8681 64.7559 73.8111 66.2337 74.6667L71.717 69.1833C72.067 68.8333 72.5239 68.5708 73.0878 68.3958C73.6517 68.2208 74.2059 68.1722 74.7503 68.25L82.8003 69.8833C83.3448 70.0389 83.792 70.3208 84.142 70.7292C84.492 71.1375 84.667 71.5944 84.667 72.1V81.55C84.667 82.25 84.4337 82.8333 83.967 83.3C83.5003 83.7667 82.917 84 82.217 84ZM49.7253 56L53.5753 52.15L52.5837 46.6667H47.392C47.5864 48.2611 47.8587 49.8361 48.2087 51.3917C48.5587 52.9472 49.0642 54.4833 49.7253 56ZM70.6087 76.8833C72.1253 77.5444 73.6712 78.0694 75.2462 78.4583C76.8212 78.8472 78.4059 79.1 80.0003 79.2167V74.0833L74.517 72.975L70.6087 76.8833Z" fill="white"/>
</g>
</svg>
