<svg width="127" height="126" viewBox="0 0 127 126" fill="none" xmlns="http://www.w3.org/2000/svg">
<circle cx="63.667" cy="63" r="63" fill="#0F3834"/>
<mask id="mask0_652_1483" style="mask-type:alpha" maskUnits="userSpaceOnUse" x="35" y="35" width="57" height="56">
<rect x="35.667" y="35" width="56" height="56" fill="#D9D9D9"/>
</mask>
<g mask="url(#mask0_652_1483)">
<path d="M63.667 86.3334C59.5448 86.3334 56.1809 85.682 53.5753 84.3792C50.9698 83.0764 49.667 81.3945 49.667 79.3334C49.667 77.9722 50.2309 76.7861 51.3587 75.775C52.4864 74.7639 54.042 73.9667 56.0253 73.3834L57.367 77.8167C56.7059 78.0111 56.1031 78.2542 55.5587 78.5459C55.0142 78.8375 54.6448 79.1 54.4503 79.3334C54.9559 79.9556 56.1225 80.5 57.9503 80.9667C59.7781 81.4334 61.6837 81.6667 63.667 81.6667C65.6503 81.6667 67.5656 81.4334 69.4128 80.9667C71.26 80.5 72.4364 79.9556 72.942 79.3334C72.7475 79.1 72.3781 78.8375 71.8337 78.5459C71.2892 78.2542 70.6864 78.0111 70.0253 77.8167L71.367 73.3834C73.3503 73.9667 74.8962 74.7639 76.0045 75.775C77.1128 76.7861 77.667 77.9722 77.667 79.3334C77.667 81.3945 76.3642 83.0764 73.7587 84.3792C71.1531 85.682 67.7892 86.3334 63.667 86.3334ZM63.667 70.7584C64.367 69.475 65.1059 68.2986 65.8837 67.2292C66.6614 66.1597 67.4198 65.1389 68.1587 64.1667C69.5975 62.3 70.7448 60.6181 71.6003 59.1209C72.4559 57.6236 72.8837 55.7667 72.8837 53.55C72.8837 50.9834 71.9892 48.8056 70.2003 47.0167C68.4114 45.2278 66.2337 44.3334 63.667 44.3334C61.1003 44.3334 58.9225 45.2278 57.1337 47.0167C55.3448 48.8056 54.4503 50.9834 54.4503 53.55C54.4503 55.7667 54.8781 57.6236 55.7337 59.1209C56.5892 60.6181 57.7364 62.3 59.1753 64.1667C59.9142 65.1389 60.6725 66.1597 61.4503 67.2292C62.2281 68.2986 62.967 69.475 63.667 70.7584ZM63.667 79.3334C63.2392 79.3334 62.8503 79.207 62.5003 78.9542C62.1503 78.7014 61.8975 78.3611 61.742 77.9334C60.8475 75.1722 59.7198 72.8584 58.3587 70.9917C56.9975 69.125 55.6753 67.3361 54.392 65.625C53.1475 63.9139 52.0684 62.1445 51.1545 60.3167C50.2406 58.4889 49.7837 56.2334 49.7837 53.55C49.7837 49.6611 51.1253 46.375 53.8087 43.6917C56.492 41.0084 59.7781 39.6667 63.667 39.6667C67.5559 39.6667 70.842 41.0084 73.5253 43.6917C76.2087 46.375 77.5503 49.6611 77.5503 53.55C77.5503 56.2334 77.1031 58.4889 76.2087 60.3167C75.3142 62.1445 74.2253 63.9139 72.942 65.625C71.6975 67.3361 70.385 69.125 69.0045 70.9917C67.6239 72.8584 66.4864 75.1722 65.592 77.9334C65.4364 78.3611 65.1837 78.7014 64.8337 78.9542C64.4837 79.207 64.0948 79.3334 63.667 79.3334ZM63.667 58.5084C65.0281 58.5084 66.1948 58.0222 67.167 57.05C68.1392 56.0778 68.6253 54.9111 68.6253 53.55C68.6253 52.1889 68.1392 51.0222 67.167 50.05C66.1948 49.0778 65.0281 48.5917 63.667 48.5917C62.3059 48.5917 61.1392 49.0778 60.167 50.05C59.1948 51.0222 58.7087 52.1889 58.7087 53.55C58.7087 54.9111 59.1948 56.0778 60.167 57.05C61.1392 58.0222 62.3059 58.5084 63.667 58.5084Z" fill="white"/>
</g>
</svg>
