<svg width="127" height="126" viewBox="0 0 127 126" fill="none" xmlns="http://www.w3.org/2000/svg">
<circle cx="63.333" cy="63" r="63" fill="#0F3834"/>
<mask id="mask0_653_1485" style="mask-type:alpha" maskUnits="userSpaceOnUse" x="35" y="35" width="57" height="56">
<rect x="35.333" y="35" width="56" height="56" fill="#D9D9D9"/>
</mask>
<g mask="url(#mask0_653_1485)">
<path d="M56.8 72.3333L63.3333 67.4333L69.75 72.3333L67.3 64.4L73.8333 59.2666H65.9L63.3333 51.3333L60.7667 59.2666H52.8333L59.25 64.4L56.8 72.3333ZM44.6667 81.6666C43.3833 81.6666 42.2847 81.2097 41.3708 80.2958C40.4569 79.3819 40 78.2833 40 77V69.125C40 68.6972 40.1361 68.3278 40.4083 68.0166C40.6806 67.7055 41.0306 67.5111 41.4583 67.4333C42.3917 67.1222 43.1597 66.5583 43.7625 65.7416C44.3653 64.925 44.6667 64.0111 44.6667 63C44.6667 61.9889 44.3653 61.075 43.7625 60.2583C43.1597 59.4416 42.3917 58.8778 41.4583 58.5666C41.0306 58.4889 40.6806 58.2944 40.4083 57.9833C40.1361 57.6722 40 57.3028 40 56.875V49C40 47.7166 40.4569 46.618 41.3708 45.7041C42.2847 44.7903 43.3833 44.3333 44.6667 44.3333H82C83.2833 44.3333 84.3819 44.7903 85.2958 45.7041C86.2097 46.618 86.6667 47.7166 86.6667 49V56.875C86.6667 57.3028 86.5306 57.6722 86.2583 57.9833C85.9861 58.2944 85.6361 58.4889 85.2083 58.5666C84.275 58.8778 83.5069 59.4416 82.9042 60.2583C82.3014 61.075 82 61.9889 82 63C82 64.0111 82.3014 64.925 82.9042 65.7416C83.5069 66.5583 84.275 67.1222 85.2083 67.4333C85.6361 67.5111 85.9861 67.7055 86.2583 68.0166C86.5306 68.3278 86.6667 68.6972 86.6667 69.125V77C86.6667 78.2833 86.2097 79.3819 85.2958 80.2958C84.3819 81.2097 83.2833 81.6666 82 81.6666H44.6667ZM44.6667 77H82V71.05C80.5611 70.1944 79.4236 69.0569 78.5875 67.6375C77.7514 66.218 77.3333 64.6722 77.3333 63C77.3333 61.3278 77.7514 59.7819 78.5875 58.3625C79.4236 56.943 80.5611 55.8055 82 54.95V49H44.6667V54.95C46.1056 55.8055 47.2431 56.943 48.0792 58.3625C48.9153 59.7819 49.3333 61.3278 49.3333 63C49.3333 64.6722 48.9153 66.218 48.0792 67.6375C47.2431 69.0569 46.1056 70.1944 44.6667 71.05V77Z" fill="white"/>
</g>
</svg>
