<svg width="300" height="75" viewBox="0 0 300 75" fill="none" xmlns="http://www.w3.org/2000/svg">
<path fill-rule="evenodd" clip-rule="evenodd" d="M258.324 14.7989L299.22 14.7538L299.325 0.123883H241.42L241.129 44.4416C233.027 34.3505 211.409 9.22395 206.659 0L189.674 0.833425L189.814 29.5302L158.824 28.8206V0.13515H141.641L141.828 17.5919L125.297 17.8172C122.061 27.5817 119.756 37.1886 116.81 47.3473C115.169 52.9673 111.56 62.011 102.84 60.5357C85.2619 57.5736 109.069 34.3617 94.9476 20.9819C81.8393 8.55946 63.7253 24.4283 61.7113 25.363C54.9709 17.7721 42.1304 10.5079 33.3295 22.1983C33.0734 21.8604 32.7357 21.3649 32.5844 21.1734L15.5064 17.4005L0 74.4448L15.8906 74.0394C19.092 68.3631 22.4331 53.4854 24.3073 46.5252C29.1735 28.4152 43.1549 25.8361 45.0524 38.5176C45.9837 44.7457 37.9162 63.3513 36.5192 74.366L53.0617 74.2646C55.0408 65.4349 58.0093 56.1433 60.489 47.0996C66.3563 25.7234 84.7846 25.9036 80.9546 43.6871C77.8114 58.2945 72.7241 82.1258 104.459 72.9582C114.936 69.9286 105.064 72.2036 113.062 73.8704C117.287 74.7601 121.909 74.3547 126.298 74.3547C129.825 61.1776 135.343 32.6836 141.665 22.8177L141.909 74.3097L158.824 74.3434L158.766 44.8358L189.802 44.5881L189.86 74.2195L206.833 73.679V29.5527C209.918 31.7263 207.683 29.9806 210.244 32.3795C210.757 32.8526 212.247 34.4293 212.864 35.1501C214.889 37.4927 215.518 38.5852 217.206 40.6912L243.318 74.3434L300 74.4448L299.988 59.691L258.533 59.8599L258.359 44.3628L294.412 44.3966L294.668 29.823L258.673 29.8793L258.324 14.7989Z" fill="white"/>
</svg>
